<svg xmlns="http://www.w3.org/2000/svg" xmlns:xlink="http://www.w3.org/1999/xlink" width="500" zoomAndPan="magnify" viewBox="0 0 375 374.999991" height="500" preserveAspectRatio="xMidYMid meet" version="1.0"><defs><clipPath id="df78c63445"><path d="M 68.53125 37.5 L 306.28125 37.5 L 306.28125 323.25 L 68.53125 323.25 Z M 68.53125 37.5 " clip-rule="nonzero"/></clipPath></defs><g clip-path="url(#df78c63445)"><path fill="#e8faff" d="M 286.769531 303.675781 L 88.222656 303.675781 L 88.222656 108.40625 L 132.949219 108.40625 C 136.558594 108.40625 139.496094 105.46875 139.496094 101.859375 L 139.496094 57.132812 L 286.769531 57.132812 Z M 296.585938 37.5 L 132.949219 37.5 C 131.28125 37.5 129.636719 37.929688 128.214844 38.714844 C 127.992188 38.832031 127.777344 38.972656 127.582031 39.097656 C 127.375 39.234375 127.179688 39.375 126.9375 39.546875 C 126.5625 39.832031 126.226562 40.144531 125.957031 40.429688 L 71.574219 94.8125 C 71.242188 95.125 70.921875 95.492188 70.609375 95.894531 C 70.457031 96.101562 70.296875 96.324219 70.109375 96.636719 C 69.992188 96.796875 69.902344 96.949219 69.839844 97.074219 C 69.027344 98.519531 68.589844 100.179688 68.589844 101.859375 L 68.589844 313.492188 C 68.589844 318.90625 72.992188 323.308594 78.40625 323.308594 L 296.585938 323.308594 C 301.996094 323.308594 306.398438 318.90625 306.398438 313.492188 L 306.398438 47.316406 C 306.398438 41.902344 301.996094 37.5 296.585938 37.5 " fill-opacity="1" fill-rule="nonzero"/></g><path fill="#e8faff" d="M 131.011719 218.480469 C 128.566406 223.535156 127.351562 229.421875 127.351562 236.144531 C 127.351562 246.808594 129.832031 254.992188 134.816406 260.691406 C 139.792969 266.398438 146.980469 269.246094 156.386719 269.246094 C 162.925781 269.246094 168.847656 268.136719 174.152344 265.933594 L 174.152344 254.4375 C 167.703125 256.707031 162.199219 257.839844 157.664062 257.839844 C 146.847656 257.839844 141.445312 250.640625 141.445312 236.226562 C 141.445312 229.304688 142.855469 223.902344 145.6875 220.035156 C 148.519531 216.15625 152.511719 214.21875 157.664062 214.21875 C 160.023438 214.21875 162.425781 214.648438 164.871094 215.503906 C 167.320312 216.355469 169.75 217.355469 172.160156 218.507812 L 176.582031 207.367188 C 170.25 204.332031 163.941406 202.8125 157.664062 202.8125 C 151.511719 202.8125 146.132812 204.164062 141.550781 206.859375 C 136.976562 209.558594 133.460938 213.433594 131.011719 218.480469 " fill-opacity="1" fill-rule="nonzero"/><path fill="#e8faff" d="M 218.253906 256.429688 C 218.078125 255.25 217.628906 253.152344 216.90625 250.125 C 216.183594 247.105469 215.476562 244.46875 214.808594 242.191406 L 202.652344 203.742188 L 188.816406 203.742188 L 210.734375 268.363281 L 225.675781 268.363281 L 247.648438 203.742188 L 233.8125 203.742188 L 221.570312 242.191406 C 219.683594 248.972656 218.578125 253.714844 218.253906 256.429688 " fill-opacity="1" fill-rule="nonzero"/><path fill="#e8faff" d="M 155.429688 172.730469 L 219.53125 172.730469 C 220.335938 172.730469 221.015625 172.464844 221.585938 171.972656 C 222.148438 171.5 222.390625 170.230469 222.390625 170.230469 L 217.953125 147.347656 C 217.765625 146.355469 217.15625 145.554688 216.253906 145.105469 C 213.378906 143.714844 206.734375 140.5625 202.285156 138.980469 C 201.625 138.738281 201.007812 138.417969 200.472656 137.988281 L 195.328125 134.078125 L 195.328125 131.933594 C 198.589844 129.386719 200.214844 125.851562 200.792969 124.296875 C 203.367188 123.492188 205.234375 121.160156 205.234375 118.339844 L 205.234375 114.589844 C 205.234375 113.035156 204.285156 111.710938 202.964844 111.148438 L 202.964844 104.808594 C 202.964844 100.941406 201.195312 97.269531 198.085938 94.984375 C 192.835938 91.144531 187.484375 91.589844 187.484375 91.589844 C 187.484375 91.589844 187.289062 91.5625 186.941406 91.5625 C 185.457031 91.5625 181.144531 91.867188 176.875 94.984375 C 173.765625 97.269531 172 100.941406 172 104.808594 L 172 111.148438 C 170.6875 111.710938 169.738281 113.035156 169.738281 114.589844 L 169.738281 118.339844 C 169.738281 121.160156 171.597656 123.492188 174.167969 124.296875 C 174.757812 125.851562 176.382812 129.386719 179.636719 131.933594 L 179.636719 134.078125 L 174.5 137.988281 C 173.953125 138.417969 173.339844 138.738281 172.6875 138.980469 C 168.230469 140.5625 161.585938 143.714844 158.707031 145.105469 C 157.816406 145.554688 157.199219 146.355469 157.011719 147.347656 L 152.597656 170.230469 C 152.597656 170.230469 152.8125 171.5 153.386719 171.972656 C 153.949219 172.464844 154.636719 172.730469 155.429688 172.730469 " fill-opacity="1" fill-rule="nonzero"/></svg>