<svg xmlns="http://www.w3.org/2000/svg" xmlns:xlink="http://www.w3.org/1999/xlink" width="500" zoomAndPan="magnify" viewBox="0 0 375 374.999991" height="500" preserveAspectRatio="xMidYMid meet" version="1.0"><defs><clipPath id="702a679bc9"><path d="M 20.042969 37.5 L 312.542969 37.5 L 312.542969 330 L 20.042969 330 Z M 20.042969 37.5 " clip-rule="nonzero"/></clipPath><clipPath id="2d600822f5"><path d="M 220 98 L 312.542969 98 L 312.542969 330 L 220 330 Z M 220 98 " clip-rule="nonzero"/></clipPath><clipPath id="f3ba298ebb"><path d="M 166.367188 37.5 C 247.121094 37.5 312.589844 102.96875 312.589844 183.824219 C 312.589844 264.578125 247.121094 330.046875 166.367188 330.046875 C 85.511719 330.046875 20.042969 264.578125 20.042969 183.824219 C 20.042969 102.96875 85.511719 37.5 166.367188 37.5 Z M 166.367188 37.5 " clip-rule="evenodd"/></clipPath><clipPath id="dbee1e992f"><path d="M 190 231 L 312.542969 231 L 312.542969 330 L 190 330 Z M 190 231 " clip-rule="nonzero"/></clipPath><clipPath id="807d28a66e"><path d="M 166.367188 37.5 C 247.121094 37.5 312.589844 102.96875 312.589844 183.824219 C 312.589844 264.578125 247.121094 330.046875 166.367188 330.046875 C 85.511719 330.046875 20.042969 264.578125 20.042969 183.824219 C 20.042969 102.96875 85.511719 37.5 166.367188 37.5 Z M 166.367188 37.5 " clip-rule="evenodd"/></clipPath><clipPath id="d423a9d2e5"><path d="M 107 103 L 312.542969 103 L 312.542969 330 L 107 330 Z M 107 103 " clip-rule="nonzero"/></clipPath><clipPath id="bcc87facdf"><path d="M 166.367188 37.5 C 247.121094 37.5 312.589844 102.96875 312.589844 183.824219 C 312.589844 264.578125 247.121094 330.046875 166.367188 330.046875 C 85.511719 330.046875 20.042969 264.578125 20.042969 183.824219 C 20.042969 102.96875 85.511719 37.5 166.367188 37.5 Z M 166.367188 37.5 " clip-rule="evenodd"/></clipPath><clipPath id="03aa853db4"><path d="M 197 231 L 312.542969 231 L 312.542969 330 L 197 330 Z M 197 231 " clip-rule="nonzero"/></clipPath><clipPath id="bd85c5bc43"><path d="M 166.367188 37.5 C 247.121094 37.5 312.589844 102.96875 312.589844 183.824219 C 312.589844 264.578125 247.121094 330.046875 166.367188 330.046875 C 85.511719 330.046875 20.042969 264.578125 20.042969 183.824219 C 20.042969 102.96875 85.511719 37.5 166.367188 37.5 Z M 166.367188 37.5 " clip-rule="evenodd"/></clipPath><clipPath id="28a6d773fc"><path d="M 190 239 L 312.542969 239 L 312.542969 330 L 190 330 Z M 190 239 " clip-rule="nonzero"/></clipPath><clipPath id="1f7fd5706c"><path d="M 166.367188 37.5 C 247.121094 37.5 312.589844 102.96875 312.589844 183.824219 C 312.589844 264.578125 247.121094 330.046875 166.367188 330.046875 C 85.511719 330.046875 20.042969 264.578125 20.042969 183.824219 C 20.042969 102.96875 85.511719 37.5 166.367188 37.5 Z M 166.367188 37.5 " clip-rule="evenodd"/></clipPath><clipPath id="cfb02152e1"><path d="M 190 269 L 312.542969 269 L 312.542969 330 L 190 330 Z M 190 269 " clip-rule="nonzero"/></clipPath><clipPath id="dfd4768079"><path d="M 166.367188 37.5 C 247.121094 37.5 312.589844 102.96875 312.589844 183.824219 C 312.589844 264.578125 247.121094 330.046875 166.367188 330.046875 C 85.511719 330.046875 20.042969 264.578125 20.042969 183.824219 C 20.042969 102.96875 85.511719 37.5 166.367188 37.5 Z M 166.367188 37.5 " clip-rule="evenodd"/></clipPath><clipPath id="e989f982cb"><path d="M 102 259 L 312.542969 259 L 312.542969 330 L 102 330 Z M 102 259 " clip-rule="nonzero"/></clipPath><clipPath id="a10476eb8a"><path d="M 166.367188 37.5 C 247.121094 37.5 312.589844 102.96875 312.589844 183.824219 C 312.589844 264.578125 247.121094 330.046875 166.367188 330.046875 C 85.511719 330.046875 20.042969 264.578125 20.042969 183.824219 C 20.042969 102.96875 85.511719 37.5 166.367188 37.5 Z M 166.367188 37.5 " clip-rule="evenodd"/></clipPath><clipPath id="ac1f7b6d04"><path d="M 100 258 L 312.542969 258 L 312.542969 330 L 100 330 Z M 100 258 " clip-rule="nonzero"/></clipPath><clipPath id="4e5041c828"><path d="M 166.367188 37.5 C 247.121094 37.5 312.589844 102.96875 312.589844 183.824219 C 312.589844 264.578125 247.121094 330.046875 166.367188 330.046875 C 85.511719 330.046875 20.042969 264.578125 20.042969 183.824219 C 20.042969 102.96875 85.511719 37.5 166.367188 37.5 Z M 166.367188 37.5 " clip-rule="evenodd"/></clipPath><clipPath id="13f00264dc"><path d="M 219 96 L 312.542969 96 L 312.542969 330 L 219 330 Z M 219 96 " clip-rule="nonzero"/></clipPath><clipPath id="67fefea7f9"><path d="M 166.367188 37.5 C 247.121094 37.5 312.589844 102.96875 312.589844 183.824219 C 312.589844 264.578125 247.121094 330.046875 166.367188 330.046875 C 85.511719 330.046875 20.042969 264.578125 20.042969 183.824219 C 20.042969 102.96875 85.511719 37.5 166.367188 37.5 Z M 166.367188 37.5 " clip-rule="evenodd"/></clipPath><clipPath id="6647a7e44a"><path d="M 231 237 L 312.542969 237 L 312.542969 330 L 231 330 Z M 231 237 " clip-rule="nonzero"/></clipPath><clipPath id="7f96a6caa0"><path d="M 166.367188 37.5 C 247.121094 37.5 312.589844 102.96875 312.589844 183.824219 C 312.589844 264.578125 247.121094 330.046875 166.367188 330.046875 C 85.511719 330.046875 20.042969 264.578125 20.042969 183.824219 C 20.042969 102.96875 85.511719 37.5 166.367188 37.5 Z M 166.367188 37.5 " clip-rule="evenodd"/></clipPath><clipPath id="fca21adbd6"><path d="M 231 239 L 312.542969 239 L 312.542969 330 L 231 330 Z M 231 239 " clip-rule="nonzero"/></clipPath><clipPath id="e8ebbe0046"><path d="M 166.367188 37.5 C 247.121094 37.5 312.589844 102.96875 312.589844 183.824219 C 312.589844 264.578125 247.121094 330.046875 166.367188 330.046875 C 85.511719 330.046875 20.042969 264.578125 20.042969 183.824219 C 20.042969 102.96875 85.511719 37.5 166.367188 37.5 Z M 166.367188 37.5 " clip-rule="evenodd"/></clipPath><clipPath id="69a1906eaa"><path d="M 199 240 L 312.542969 240 L 312.542969 330 L 199 330 Z M 199 240 " clip-rule="nonzero"/></clipPath><clipPath id="58373adc53"><path d="M 166.367188 37.5 C 247.121094 37.5 312.589844 102.96875 312.589844 183.824219 C 312.589844 264.578125 247.121094 330.046875 166.367188 330.046875 C 85.511719 330.046875 20.042969 264.578125 20.042969 183.824219 C 20.042969 102.96875 85.511719 37.5 166.367188 37.5 Z M 166.367188 37.5 " clip-rule="evenodd"/></clipPath><clipPath id="a716cf7c77"><path d="M 199 271 L 312.542969 271 L 312.542969 330 L 199 330 Z M 199 271 " clip-rule="nonzero"/></clipPath><clipPath id="99dab90c60"><path d="M 166.367188 37.5 C 247.121094 37.5 312.589844 102.96875 312.589844 183.824219 C 312.589844 264.578125 247.121094 330.046875 166.367188 330.046875 C 85.511719 330.046875 20.042969 264.578125 20.042969 183.824219 C 20.042969 102.96875 85.511719 37.5 166.367188 37.5 Z M 166.367188 37.5 " clip-rule="evenodd"/></clipPath><clipPath id="066bc0067d"><path d="M 196 271 L 312.542969 271 L 312.542969 330 L 196 330 Z M 196 271 " clip-rule="nonzero"/></clipPath><clipPath id="e8cd6abc04"><path d="M 166.367188 37.5 C 247.121094 37.5 312.589844 102.96875 312.589844 183.824219 C 312.589844 264.578125 247.121094 330.046875 166.367188 330.046875 C 85.511719 330.046875 20.042969 264.578125 20.042969 183.824219 C 20.042969 102.96875 85.511719 37.5 166.367188 37.5 Z M 166.367188 37.5 " clip-rule="evenodd"/></clipPath><clipPath id="a4a299d148"><path d="M 220 98 L 312.542969 98 L 312.542969 330 L 220 330 Z M 220 98 " clip-rule="nonzero"/></clipPath><clipPath id="90012409b0"><path d="M 166.367188 37.5 C 247.121094 37.5 312.589844 102.96875 312.589844 183.824219 C 312.589844 264.578125 247.121094 330.046875 166.367188 330.046875 C 85.511719 330.046875 20.042969 264.578125 20.042969 183.824219 C 20.042969 102.96875 85.511719 37.5 166.367188 37.5 Z M 166.367188 37.5 " clip-rule="evenodd"/></clipPath><clipPath id="497ef48257"><path d="M 230 231 L 312.542969 231 L 312.542969 330 L 230 330 Z M 230 231 " clip-rule="nonzero"/></clipPath><clipPath id="93f382093d"><path d="M 166.367188 37.5 C 247.121094 37.5 312.589844 102.96875 312.589844 183.824219 C 312.589844 264.578125 247.121094 330.046875 166.367188 330.046875 C 85.511719 330.046875 20.042969 264.578125 20.042969 183.824219 C 20.042969 102.96875 85.511719 37.5 166.367188 37.5 Z M 166.367188 37.5 " clip-rule="evenodd"/></clipPath><clipPath id="4ffa0adc81"><path d="M 114 271 L 312.542969 271 L 312.542969 330 L 114 330 Z M 114 271 " clip-rule="nonzero"/></clipPath><clipPath id="fa7f9df75a"><path d="M 166.367188 37.5 C 247.121094 37.5 312.589844 102.96875 312.589844 183.824219 C 312.589844 264.578125 247.121094 330.046875 166.367188 330.046875 C 85.511719 330.046875 20.042969 264.578125 20.042969 183.824219 C 20.042969 102.96875 85.511719 37.5 166.367188 37.5 Z M 166.367188 37.5 " clip-rule="evenodd"/></clipPath><clipPath id="6fcf66eaa1"><path d="M 113 271 L 312.542969 271 L 312.542969 330 L 113 330 Z M 113 271 " clip-rule="nonzero"/></clipPath><clipPath id="1152d316bb"><path d="M 166.367188 37.5 C 247.121094 37.5 312.589844 102.96875 312.589844 183.824219 C 312.589844 264.578125 247.121094 330.046875 166.367188 330.046875 C 85.511719 330.046875 20.042969 264.578125 20.042969 183.824219 C 20.042969 102.96875 85.511719 37.5 166.367188 37.5 Z M 166.367188 37.5 " clip-rule="evenodd"/></clipPath><clipPath id="04b6be6a73"><path d="M 231 108 L 312.542969 108 L 312.542969 330 L 231 330 Z M 231 108 " clip-rule="nonzero"/></clipPath><clipPath id="9c1be0f8cd"><path d="M 166.367188 37.5 C 247.121094 37.5 312.589844 102.96875 312.589844 183.824219 C 312.589844 264.578125 247.121094 330.046875 166.367188 330.046875 C 85.511719 330.046875 20.042969 264.578125 20.042969 183.824219 C 20.042969 102.96875 85.511719 37.5 166.367188 37.5 Z M 166.367188 37.5 " clip-rule="evenodd"/></clipPath><clipPath id="7a095a86b8"><path d="M 232 110 L 312.542969 110 L 312.542969 330 L 232 330 Z M 232 110 " clip-rule="nonzero"/></clipPath><clipPath id="7c79a821f4"><path d="M 166.367188 37.5 C 247.121094 37.5 312.589844 102.96875 312.589844 183.824219 C 312.589844 264.578125 247.121094 330.046875 166.367188 330.046875 C 85.511719 330.046875 20.042969 264.578125 20.042969 183.824219 C 20.042969 102.96875 85.511719 37.5 166.367188 37.5 Z M 166.367188 37.5 " clip-rule="evenodd"/></clipPath><clipPath id="95a82dfa4a"><path d="M 100 95 L 233 95 L 233 272 L 100 272 Z M 100 95 " clip-rule="nonzero"/></clipPath><clipPath id="fa98211208"><path d="M 166.367188 37.5 C 247.121094 37.5 312.589844 102.96875 312.589844 183.824219 C 312.589844 264.578125 247.121094 330.046875 166.367188 330.046875 C 85.511719 330.046875 20.042969 264.578125 20.042969 183.824219 C 20.042969 102.96875 85.511719 37.5 166.367188 37.5 Z M 166.367188 37.5 " clip-rule="evenodd"/></clipPath><clipPath id="9a0505530f"><path d="M 284.433594 48.015625 L 340.746094 48.015625 L 340.746094 104.324219 L 284.433594 104.324219 Z M 284.433594 48.015625 " clip-rule="nonzero"/></clipPath><clipPath id="b8e01502cf"><path d="M 312.589844 48.015625 C 297.039062 48.015625 284.433594 60.621094 284.433594 76.171875 C 284.433594 91.71875 297.039062 104.324219 312.589844 104.324219 C 328.140625 104.324219 340.746094 91.71875 340.746094 76.171875 C 340.746094 60.621094 328.140625 48.015625 312.589844 48.015625 Z M 312.589844 48.015625 " clip-rule="nonzero"/></clipPath><clipPath id="a9366a77c4"><path d="M 277.554688 41.136719 L 347.304688 41.136719 L 347.304688 110.886719 L 277.554688 110.886719 Z M 277.554688 41.136719 " clip-rule="nonzero"/></clipPath></defs><g clip-path="url(#702a679bc9)"><path fill="#0e2250" d="M 166.367188 37.5 C 247.121094 37.5 312.589844 102.96875 312.589844 183.824219 C 312.589844 264.578125 247.121094 330.046875 166.367188 330.046875 C 85.511719 330.046875 20.042969 264.578125 20.042969 183.824219 C 20.042969 102.96875 85.511719 37.5 166.367188 37.5 Z M 166.367188 37.5 " fill-opacity="1" fill-rule="evenodd"/></g><g clip-path="url(#2d600822f5)"><g clip-path="url(#f3ba298ebb)"><path fill="#052f6c" d="M 220.0625 98.117188 L 611.019531 489.074219 L 611.019531 494.238281 L 220.0625 103.277344 Z M 220.0625 98.117188 " fill-opacity="1" fill-rule="evenodd"/></g></g><g clip-path="url(#dbee1e992f)"><g clip-path="url(#807d28a66e)"><path fill="#052f6c" d="M 197.863281 231.84375 L 588.921875 622.902344 L 588.097656 622.902344 L 587.375 623.007812 L 586.753906 623.214844 L 586.03125 623.417969 L 585.410156 623.730469 L 584.792969 624.144531 L 584.277344 624.554688 L 583.757812 624.96875 L 583.347656 625.484375 L 582.933594 626 L 582.519531 626.621094 L 582.210938 627.242188 L 582.003906 627.964844 L 581.796875 628.582031 L 581.695312 629.304688 L 581.695312 630.132812 L 190.632812 239.070312 L 190.738281 238.347656 L 190.839844 237.625 L 190.945312 236.902344 L 191.253906 236.28125 L 191.5625 235.664062 L 191.871094 235.042969 L 192.285156 234.527344 L 192.800781 234.011719 L 193.320312 233.496094 L 193.835938 233.082031 L 194.453125 232.773438 L 195.074219 232.460938 L 195.695312 232.152344 L 196.417969 232.050781 L 197.140625 231.945312 Z M 197.863281 231.84375 " fill-opacity="1" fill-rule="evenodd"/></g></g><g clip-path="url(#d423a9d2e5)"><g clip-path="url(#bcc87facdf)"><path fill="#052f6c" d="M 220.0625 103.277344 L 611.019531 494.238281 L 505.898438 494.238281 L 504.453125 494.441406 L 503.730469 494.648438 L 503.109375 494.855469 L 502.492188 495.164062 L 501.871094 495.476562 L 501.355469 495.890625 L 500.324219 496.921875 L 499.910156 497.4375 L 499.597656 498.058594 L 499.289062 498.675781 L 498.980469 499.398438 L 498.875 500.019531 L 498.671875 500.742188 L 498.671875 650.476562 L 107.710938 259.414062 L 107.710938 109.785156 L 107.816406 109.0625 L 108.023438 108.339844 L 108.230469 107.71875 L 108.539062 107.101562 L 108.953125 106.480469 L 109.363281 105.964844 L 109.777344 105.449219 L 110.292969 104.929688 L 110.914062 104.519531 L 111.429688 104.207031 L 112.152344 103.898438 L 112.773438 103.589844 L 113.496094 103.484375 L 114.21875 103.382812 L 114.941406 103.277344 Z M 220.0625 103.277344 " fill-opacity="1" fill-rule="evenodd"/></g></g><g clip-path="url(#03aa853db4)"><g clip-path="url(#bd85c5bc43)"><path fill="#052f6c" d="M 230.183594 231.84375 L 621.140625 622.902344 L 588.921875 622.902344 L 197.863281 231.84375 Z M 230.183594 231.84375 " fill-opacity="1" fill-rule="evenodd"/></g></g><g clip-path="url(#28a6d773fc)"><g clip-path="url(#1f7fd5706c)"><path fill="#052f6c" d="M 190.632812 239.070312 L 581.695312 630.132812 L 581.695312 660.492188 L 190.632812 269.535156 Z M 190.632812 239.070312 " fill-opacity="1" fill-rule="evenodd"/></g></g><g clip-path="url(#cfb02152e1)"><g clip-path="url(#dfd4768079)"><path fill="#052f6c" d="M 190.632812 269.535156 L 581.695312 660.492188 L 581.695312 661.421875 L 581.796875 661.730469 L 581.796875 662.039062 L 581.902344 662.351562 L 582.003906 662.558594 L 582.109375 662.867188 L 191.046875 271.910156 L 190.945312 271.597656 L 190.945312 271.289062 L 190.839844 270.980469 L 190.738281 270.773438 L 190.738281 270.152344 L 190.632812 269.84375 Z M 190.632812 269.535156 " fill-opacity="1" fill-rule="evenodd"/></g></g><g clip-path="url(#e989f982cb)"><g clip-path="url(#a10476eb8a)"><path fill="#052f6c" d="M 107.710938 259.414062 L 498.671875 650.476562 L 493.507812 650.476562 L 102.445312 259.414062 Z M 107.710938 259.414062 " fill-opacity="1" fill-rule="evenodd"/></g></g><g clip-path="url(#ac1f7b6d04)"><g clip-path="url(#4e5041c828)"><path fill="#052f6c" d="M 102.445312 259.414062 L 493.507812 650.476562 L 492.992188 650.371094 L 492.472656 650.269531 L 492.0625 650.0625 L 491.75 649.753906 L 100.792969 258.792969 L 101.105469 259 L 101.515625 259.3125 L 102.035156 259.414062 Z M 102.445312 259.414062 " fill-opacity="1" fill-rule="evenodd"/></g></g><g clip-path="url(#13f00264dc)"><g clip-path="url(#67fefea7f9)"><path fill="#052f6c" d="M 219.339844 96.359375 L 610.402344 487.316406 L 610.609375 487.730469 L 610.917969 488.144531 L 611.019531 488.558594 L 611.019531 489.074219 L 220.0625 98.117188 L 220.0625 97.601562 L 219.859375 97.1875 L 219.652344 96.773438 Z M 219.339844 96.359375 " fill-opacity="1" fill-rule="evenodd"/></g></g><g clip-path="url(#6647a7e44a)"><g clip-path="url(#7f96a6caa0)"><path fill="#052f6c" d="M 231.9375 237.417969 L 622.898438 628.375 L 623.207031 628.789062 L 623.414062 629.097656 L 623.515625 629.617188 L 623.621094 630.132812 L 232.558594 239.070312 L 232.558594 238.660156 L 232.457031 238.140625 L 232.144531 237.730469 Z M 231.9375 237.417969 " fill-opacity="1" fill-rule="evenodd"/></g></g><g clip-path="url(#fca21adbd6)"><g clip-path="url(#e8ebbe0046)"><path fill="#052f6c" d="M 232.558594 239.070312 L 623.621094 630.132812 L 623.621094 630.339844 L 623.515625 630.648438 L 623.414062 630.855469 L 623.308594 631.164062 L 623.207031 631.371094 L 623.101562 631.578125 L 622.898438 631.785156 L 622.691406 631.992188 L 231.734375 240.929688 L 231.9375 240.828125 L 232.042969 240.621094 L 232.25 240.414062 L 232.351562 240.105469 L 232.457031 239.898438 L 232.558594 239.691406 Z M 232.558594 239.070312 " fill-opacity="1" fill-rule="evenodd"/></g></g><g clip-path="url(#69a1906eaa)"><g clip-path="url(#58373adc53)"><path fill="#052f6c" d="M 231.734375 240.929688 L 622.691406 631.992188 L 590.574219 662.246094 L 199.515625 271.289062 Z M 231.734375 240.929688 " fill-opacity="1" fill-rule="evenodd"/></g></g><g clip-path="url(#a716cf7c77)"><g clip-path="url(#99dab90c60)"><path fill="#052f6c" d="M 199.515625 271.289062 L 590.574219 662.246094 Z M 199.515625 271.289062 " fill-opacity="1" fill-rule="evenodd"/></g></g><g clip-path="url(#066bc0067d)"><g clip-path="url(#e8cd6abc04)"><path fill="#052f6c" d="M 199.515625 271.289062 L 590.574219 662.246094 L 590.164062 662.558594 L 589.75 662.761719 L 589.234375 662.867188 L 588.304688 662.867188 L 587.476562 662.453125 L 587.167969 662.144531 L 196.105469 271.1875 L 196.519531 271.496094 L 196.933594 271.703125 L 197.347656 271.804688 L 197.863281 271.910156 L 198.273438 271.910156 L 198.6875 271.804688 L 199.203125 271.597656 Z M 199.515625 271.289062 " fill-opacity="1" fill-rule="evenodd"/></g></g><g clip-path="url(#a4a299d148)"><g clip-path="url(#90012409b0)"><path fill="#052f6c" d="M 220.0625 98.117188 L 611.019531 489.074219 Z M 220.0625 98.117188 " fill-opacity="1" fill-rule="evenodd"/></g></g><g clip-path="url(#497ef48257)"><g clip-path="url(#93f382093d)"><path fill="#052f6c" d="M 232.558594 232.257812 L 623.621094 623.316406 L 623.308594 623.214844 L 623 623.109375 L 622.691406 623.007812 L 622.378906 623.007812 L 622.070312 622.902344 L 621.140625 622.902344 L 230.183594 231.84375 L 230.492188 231.84375 L 230.804688 231.945312 L 231.421875 231.945312 L 231.734375 232.050781 L 232.042969 232.152344 L 232.351562 232.152344 Z M 232.558594 232.257812 " fill-opacity="1" fill-rule="evenodd"/></g></g><g clip-path="url(#4ffa0adc81)"><g clip-path="url(#fa7f9df75a)"><path fill="#052f6c" d="M 191.046875 271.910156 L 582.109375 662.867188 L 505.898438 662.867188 L 114.941406 271.910156 Z M 191.046875 271.910156 " fill-opacity="1" fill-rule="evenodd"/></g></g><g clip-path="url(#6fcf66eaa1)"><g clip-path="url(#1152d316bb)"><path fill="#052f6c" d="M 114.941406 271.910156 L 505.898438 662.867188 L 505.382812 662.867188 L 504.554688 662.453125 L 504.246094 662.144531 L 113.1875 271.1875 L 113.597656 271.496094 L 114.425781 271.910156 Z M 114.941406 271.910156 " fill-opacity="1" fill-rule="evenodd"/></g></g><g clip-path="url(#04b6be6a73)"><g clip-path="url(#9c1be0f8cd)"><path fill="#052f6c" d="M 231.9375 108.855469 L 622.898438 499.8125 L 623.207031 500.121094 L 623.414062 500.535156 L 623.515625 501.050781 L 623.621094 501.464844 L 232.558594 110.507812 L 232.558594 110.09375 L 232.457031 109.578125 L 232.144531 109.164062 Z M 231.9375 108.855469 " fill-opacity="1" fill-rule="evenodd"/></g></g><g clip-path="url(#7a095a86b8)"><g clip-path="url(#7c79a821f4)"><path fill="#052f6c" d="M 232.558594 110.507812 L 623.621094 501.464844 L 623.621094 623.316406 L 232.558594 232.257812 Z M 232.558594 110.507812 " fill-opacity="1" fill-rule="evenodd"/></g></g><g clip-path="url(#95a82dfa4a)"><g clip-path="url(#fa98211208)"><path fill="#052f6c" d="M 232.558594 110.507812 L 232.558594 232.257812 C 231.835938 232.050781 231.011719 231.84375 230.183594 231.84375 L 197.863281 231.84375 C 193.9375 231.84375 190.632812 235.148438 190.632812 239.070312 L 190.632812 269.535156 C 190.632812 270.359375 190.839844 271.1875 191.046875 271.910156 L 114.941406 271.910156 C 113.597656 271.910156 112.464844 270.875 112.464844 269.535156 L 112.464844 110.507812 C 112.464844 109.164062 113.597656 108.132812 114.941406 108.132812 L 230.183594 108.132812 C 231.527344 108.132812 232.558594 109.164062 232.558594 110.507812 Z M 230.183594 236.695312 C 231.527344 236.695312 232.558594 237.730469 232.558594 239.070312 C 232.558594 239.898438 232.25 240.515625 231.734375 240.929688 L 199.515625 271.289062 C 198.585938 272.117188 197.035156 272.117188 196.105469 271.1875 C 195.695312 270.671875 195.488281 270.050781 195.488281 269.535156 L 195.488281 239.070312 C 195.488281 237.730469 196.519531 236.695312 197.863281 236.695312 Z M 220.0625 98.117188 L 220.0625 103.277344 L 114.941406 103.277344 C 110.914062 103.277344 107.710938 106.582031 107.710938 110.507812 L 107.710938 259.414062 L 102.445312 259.414062 C 101.105469 259.414062 100.070312 258.382812 100.070312 257.039062 L 100.070312 98.117188 C 100.070312 96.773438 101.105469 95.636719 102.445312 95.636719 L 217.6875 95.636719 C 219.03125 95.636719 220.0625 96.773438 220.0625 98.117188 Z M 220.0625 98.117188 " fill-opacity="1" fill-rule="evenodd"/></g></g><path fill="#e8faff" d="M 195.488281 269.535156 L 195.488281 239.070312 C 195.488281 237.730469 196.519531 236.695312 197.863281 236.695312 L 230.183594 236.695312 C 231.527344 236.695312 232.558594 237.730469 232.558594 239.070312 C 232.558594 239.898438 232.25 240.515625 231.734375 240.929688 L 199.515625 271.289062 C 198.585938 272.117188 197.035156 272.117188 196.105469 271.1875 C 195.695312 270.671875 195.488281 270.050781 195.488281 269.535156 Z M 195.488281 269.535156 " fill-opacity="1" fill-rule="nonzero"/><path fill="#e8faff" d="M 220.0625 103.277344 L 220.0625 98.117188 L 217.6875 98.117188 L 220.0625 98.117188 C 220.0625 96.773438 219.03125 95.636719 217.6875 95.636719 L 102.445312 95.636719 C 101.105469 95.636719 100.070312 96.773438 100.070312 98.117188 L 100.070312 257.039062 C 100.070312 258.382812 101.105469 259.414062 102.445312 259.414062 L 107.710938 259.414062 L 107.710938 110.507812 C 107.710938 106.582031 110.914062 103.277344 114.941406 103.277344 Z M 220.0625 103.277344 " fill-opacity="1" fill-rule="nonzero"/><path fill="#e8faff" d="M 230.183594 108.132812 L 114.941406 108.132812 C 113.597656 108.132812 112.464844 109.164062 112.464844 110.507812 L 112.464844 269.535156 C 112.464844 270.875 113.597656 271.910156 114.941406 271.910156 L 191.046875 271.910156 C 190.839844 271.1875 190.632812 270.359375 190.632812 269.535156 L 190.632812 239.070312 C 190.632812 235.148438 193.9375 231.84375 197.863281 231.84375 L 230.183594 231.84375 C 231.011719 231.84375 231.835938 232.050781 232.558594 232.257812 L 232.558594 110.507812 C 232.558594 109.164062 231.527344 108.132812 230.183594 108.132812 Z M 169.566406 127.132812 L 169.566406 166.476562 C 169.566406 167.820312 168.535156 168.851562 167.191406 168.851562 L 127.746094 168.851562 C 126.402344 168.851562 125.371094 167.820312 125.371094 166.476562 L 125.371094 127.132812 C 125.371094 125.789062 126.402344 124.65625 127.746094 124.65625 L 167.191406 124.65625 C 168.535156 124.65625 169.566406 125.789062 169.566406 127.132812 Z M 127.746094 175.976562 L 217.171875 175.976562 C 218.515625 175.976562 219.652344 177.007812 219.652344 178.351562 C 219.652344 179.695312 218.515625 180.832031 217.171875 180.832031 L 127.746094 180.832031 C 126.402344 180.832031 125.371094 179.695312 125.371094 178.351562 C 125.371094 177.007812 126.402344 175.976562 127.746094 175.976562 Z M 125.371094 190.226562 C 125.371094 188.886719 126.402344 187.851562 127.746094 187.851562 L 217.171875 187.851562 C 218.515625 187.851562 219.652344 188.886719 219.652344 190.226562 C 219.652344 191.570312 218.515625 192.707031 217.171875 192.707031 L 127.746094 192.707031 C 126.402344 192.707031 125.371094 191.570312 125.371094 190.226562 Z M 178.757812 152.226562 L 217.171875 152.226562 C 218.515625 152.226562 219.652344 153.257812 219.652344 154.601562 C 219.652344 155.945312 218.515625 156.976562 217.171875 156.976562 L 178.757812 156.976562 C 177.414062 156.976562 176.382812 155.945312 176.382812 154.601562 C 176.382812 153.257812 177.414062 152.226562 178.757812 152.226562 Z M 125.371094 202.101562 C 125.371094 200.761719 126.402344 199.726562 127.746094 199.726562 L 217.171875 199.726562 C 218.515625 199.726562 219.652344 200.761719 219.652344 202.101562 C 219.652344 203.445312 218.515625 204.582031 217.171875 204.582031 L 127.746094 204.582031 C 126.402344 204.582031 125.371094 203.445312 125.371094 202.101562 Z M 125.371094 213.976562 C 125.371094 212.636719 126.402344 211.601562 127.746094 211.601562 L 217.171875 211.601562 C 218.515625 211.601562 219.652344 212.636719 219.652344 213.976562 C 219.652344 215.320312 218.515625 216.457031 217.171875 216.457031 L 127.746094 216.457031 C 126.402344 216.457031 125.371094 215.320312 125.371094 213.976562 Z M 125.371094 225.851562 C 125.371094 224.613281 126.402344 223.476562 127.746094 223.476562 L 217.171875 223.476562 C 218.515625 223.476562 219.652344 224.613281 219.652344 225.851562 C 219.652344 227.195312 218.515625 228.332031 217.171875 228.332031 L 127.746094 228.332031 C 126.402344 228.332031 125.371094 227.195312 125.371094 225.851562 Z M 178.757812 164.101562 L 217.171875 164.101562 C 218.515625 164.101562 219.652344 165.132812 219.652344 166.476562 C 219.652344 167.820312 218.515625 168.851562 217.171875 168.851562 L 178.757812 168.851562 C 177.414062 168.851562 176.382812 167.820312 176.382812 166.476562 C 176.382812 165.132812 177.414062 164.101562 178.757812 164.101562 Z M 138.691406 245.265625 Z M 132.394531 250.636719 Z M 132.394531 250.636719 " fill-opacity="1" fill-rule="evenodd"/><g clip-path="url(#9a0505530f)"><g clip-path="url(#b8e01502cf)"><path fill="#e8faff" d="M 284.433594 48.015625 L 340.746094 48.015625 L 340.746094 104.324219 L 284.433594 104.324219 Z M 284.433594 48.015625 " fill-opacity="1" fill-rule="nonzero"/></g></g><g clip-path="url(#a9366a77c4)"><path fill="#0e2250" d="M 310.230469 88.261719 L 296.730469 74.695312 C 296.066406 74.027344 295.773438 73.21875 295.773438 72.332031 C 295.773438 71.445312 296.066406 70.636719 296.730469 69.972656 C 297.980469 68.714844 300.121094 68.714844 301.378906 69.972656 L 312.585938 81.257812 L 323.796875 70.046875 C 325.054688 68.789062 327.1875 68.789062 328.445312 70.046875 C 329.699219 71.296875 329.699219 73.4375 328.445312 74.695312 L 314.945312 88.261719 C 314.355469 88.859375 313.472656 89.226562 312.585938 89.226562 C 311.703125 89.226562 310.890625 88.859375 310.230469 88.261719 Z M 347.621094 76.167969 C 347.621094 56.839844 331.914062 41.136719 312.585938 41.136719 C 293.261719 41.136719 277.554688 56.839844 277.554688 76.167969 C 277.554688 95.496094 293.261719 111.203125 312.585938 111.203125 C 331.914062 111.203125 347.621094 95.496094 347.621094 76.167969 " fill-opacity="1" fill-rule="nonzero"/></g></svg>