<svg xmlns="http://www.w3.org/2000/svg" xmlns:xlink="http://www.w3.org/1999/xlink" width="500" zoomAndPan="magnify" viewBox="0 0 375 225" height="300" preserveAspectRatio="xMidYMid meet" version="1.0"><defs><filter x="0%" y="0%" width="100%" height="100%" id="494e95c948"><feColorMatrix values="0 0 0 0 1 0 0 0 0 1 0 0 0 0 1 0 0 0 1 0" color-interpolation-filters="sRGB"/></filter><mask id="292a77f731"><g filter="url(#494e95c948)"><rect x="-37.5" width="450" fill="#000000" y="-22.5" height="270" fill-opacity="0.2"/></g></mask><clipPath id="629c0f6503"><path d="M 0.886719 0.449219 L 174.605469 0.449219 L 174.605469 174.164062 L 0.886719 174.164062 Z M 0.886719 0.449219 " clip-rule="nonzero"/></clipPath><clipPath id="446339a412"><path d="M 87.746094 0.449219 C 39.773438 0.449219 0.886719 39.335938 0.886719 87.304688 C 0.886719 135.277344 39.773438 174.164062 87.746094 174.164062 C 135.714844 174.164062 174.605469 135.277344 174.605469 87.304688 C 174.605469 39.335938 135.714844 0.449219 87.746094 0.449219 Z M 87.746094 0.449219 " clip-rule="nonzero"/></clipPath><clipPath id="25789d19c0"><rect x="0" width="175" y="0" height="175"/></clipPath><clipPath id="8e41474da8"><path d="M 0 24.703125 L 374.742188 24.703125 L 374.742188 224.953125 L 0 224.953125 Z M 0 24.703125 " clip-rule="nonzero"/></clipPath><clipPath id="a24efa3223"><path d="M 39 109 L 212 109 L 212 224.953125 L 39 224.953125 Z M 39 109 " clip-rule="nonzero"/></clipPath><clipPath id="bedddc472e"><path d="M 183 96 L 374.742188 96 L 374.742188 219 L 183 219 Z M 183 96 " clip-rule="nonzero"/></clipPath><clipPath id="81198c36d3"><path d="M 296 147.601562 L 307 147.601562 L 307 167 L 296 167 Z M 296 147.601562 " clip-rule="nonzero"/></clipPath><clipPath id="3805846ee1"><path d="M 290.855469 153 L 297 153 L 297 162 L 290.855469 162 Z M 290.855469 153 " clip-rule="nonzero"/></clipPath><clipPath id="6a565c3245"><path d="M 306 153 L 311.855469 153 L 311.855469 162 L 306 162 Z M 306 153 " clip-rule="nonzero"/></clipPath></defs><g mask="url(#292a77f731)"><g transform="matrix(1, 0, 0, 1, 7, 6)"><g clip-path="url(#25789d19c0)"><g clip-path="url(#629c0f6503)"><g clip-path="url(#446339a412)"><path fill="#88796f" d="M 0.886719 0.449219 L 174.605469 0.449219 L 174.605469 174.164062 L 0.886719 174.164062 Z M 0.886719 0.449219 " fill-opacity="1" fill-rule="nonzero"/></g></g></g></g></g><g clip-path="url(#8e41474da8)"><path fill="#0f1b35" d="M 376.683594 232.078125 L 0.0625 232.078125 L 0.0625 215.058594 L 376.683594 215.058594 Z M 120.355469 66.089844 C 122.019531 65.863281 123.535156 64.726562 124.367188 63.214844 C 125.199219 61.699219 125.425781 59.960938 125.199219 58.296875 C 125.125 57.691406 125.425781 56.933594 125.199219 56.40625 C 128.605469 52.773438 129.359375 46.949219 126.9375 42.636719 C 126.410156 41.726562 125.878906 40.972656 124.972656 40.667969 C 126.257812 39.535156 126.710938 37.492188 126.03125 35.902344 C 125.730469 35.296875 125.351562 34.691406 124.894531 34.160156 C 124.0625 33.179688 123.082031 32.347656 121.945312 31.742188 C 120.8125 31.136719 119.449219 30.453125 118.238281 30.832031 C 117.253906 29.09375 115.589844 27.808594 113.699219 27.203125 C 111.808594 26.597656 109.765625 26.671875 107.875 27.277344 C 106.964844 27.578125 106.058594 28.109375 105.90625 29.015625 C 105.90625 29.167969 105.90625 29.167969 106.058594 29.09375 C 105.980469 27.578125 105.300781 26.140625 104.015625 25.386719 C 103.484375 25.082031 102.878906 24.933594 102.273438 24.855469 C 100.988281 24.703125 99.628906 24.933594 98.492188 25.535156 C 97.355469 26.21875 96.523438 27.429688 96.296875 28.714844 C 95.617188 27.730469 94.558594 27.050781 93.347656 26.824219 C 92.136719 26.597656 90.925781 26.671875 89.792969 26.898438 C 89.035156 27.050781 88.203125 27.351562 87.523438 27.730469 C 85.707031 28.789062 84.34375 30.984375 84.496094 33.101562 C 83.058594 31.589844 80.789062 30.832031 78.746094 31.058594 C 76.628906 31.285156 74.660156 32.421875 73.222656 33.933594 C 72.390625 34.84375 71.785156 35.902344 72.164062 37.035156 C 69.742188 37.1875 67.398438 38.324219 66.035156 40.289062 C 64.671875 42.257812 64.523438 45.285156 65.960938 47.175781 C 64.296875 47.855469 62.859375 49.292969 62.253906 51.035156 C 61.648438 52.773438 61.949219 54.890625 63.234375 56.179688 C 61.875 57.085938 61.042969 58.902344 61.34375 60.566406 C 61.570312 62.230469 62.480469 64.121094 64.070312 64.574219 C 63.613281 64.878906 63.464844 65.332031 63.3125 65.863281 C 63.007812 66.921875 63.3125 68.054688 63.691406 69.039062 C 64.070312 69.871094 64.523438 70.703125 65.203125 71.234375 C 66.1875 71.914062 67.398438 71.988281 68.53125 71.988281 C 68.152344 72.671875 68.078125 72.898438 68.152344 73.730469 C 68.304688 76.226562 70.5 78.269531 72.996094 78.722656 C 75.492188 79.175781 77.988281 78.34375 79.957031 76.832031 " fill-opacity="1" fill-rule="nonzero"/></g><g clip-path="url(#a24efa3223)"><path fill="#88796f" d="M 179.371094 224.210938 C 144.792969 224.96875 94.40625 224.589844 90.019531 216.265625 L 42.050781 215.058594 C 42.050781 215.058594 37.664062 172.082031 41.597656 148.855469 C 46.515625 119.351562 73.375 112.769531 79.351562 109.96875 C 79.351562 109.96875 88.277344 110.273438 103.484375 111.710938 C 118.691406 113.148438 134.277344 134.859375 136.851562 141.519531 C 139.421875 148.175781 148.578125 185.929688 148.578125 185.929688 L 211.75 185.929688 L 211.75 215.511719 L 179.371094 215.511719 Z M 179.371094 224.210938 " fill-opacity="1" fill-rule="nonzero"/></g><path fill="#e8e1d1" d="M 179.371094 194.707031 C 179.371094 194.707031 198.886719 191.226562 204.867188 192.359375 C 210.84375 193.570312 214.625 197.203125 214.625 197.203125 C 214.625 197.203125 230.363281 191.601562 234.902344 192.132812 C 239.515625 192.664062 254.949219 202.496094 254.800781 204.769531 C 254.648438 207.039062 250.636719 208.097656 250.636719 208.097656 C 250.636719 208.097656 252 210.667969 246.929688 210.746094 C 246.929688 210.746094 245.945312 214.300781 241.863281 213.542969 C 241.863281 213.542969 240.800781 214.527344 237.171875 213.542969 C 233.613281 212.558594 228.167969 211.425781 228.167969 211.425781 C 228.167969 211.425781 225.140625 215.132812 218.636719 215.132812 C 212.128906 215.132812 204.867188 213.316406 202.367188 212.105469 C 199.871094 210.972656 196.921875 209.382812 196.921875 209.382812 C 196.921875 209.382812 191.246094 215.585938 179.371094 215.359375 Z M 179.371094 194.707031 " fill-opacity="1" fill-rule="nonzero"/><g clip-path="url(#bedddc472e)"><path fill="#0f1b35" d="M 378.347656 190.542969 L 378.347656 96.652344 L 222.71875 96.652344 L 222.71875 190.542969 L 260.246094 190.542969 C 259.867188 195.765625 258.65625 203.332031 255.175781 208.476562 C 243.148438 197.429688 229.984375 200.910156 228.546875 203.785156 C 235.960938 204.84375 239.742188 207.1875 239.289062 209.003906 C 238.988281 210.289062 235.429688 211.5 233.386719 212.03125 L 231.421875 212.03125 C 231.269531 212.03125 223.628906 210.140625 223.628906 210.140625 L 221.433594 212.03125 L 183.683594 212.03125 L 183.683594 218.992188 L 339.382812 218.992188 L 339.382812 212.03125 L 320.316406 212.03125 L 320.316406 190.542969 Z M 270.914062 190.542969 C 269.097656 204.917969 263.347656 210.214844 260.246094 212.03125 L 258.507812 212.03125 C 258.355469 211.804688 258.128906 211.578125 257.976562 211.425781 C 262.742188 205.523438 263.953125 196.445312 264.105469 190.542969 Z M 280.824219 212.03125 L 266.296875 212.03125 C 271.445312 206.28125 273.5625 196.746094 274.394531 190.542969 L 280.824219 190.542969 Z M 280.824219 212.03125 " fill-opacity="1" fill-rule="nonzero"/></g><path fill="#88796f" d="M 231.574219 142.273438 C 231.800781 156.574219 232.101562 170.949219 232.328125 185.25 C 230.589844 184.566406 230.285156 182.222656 230.210938 180.40625 C 229.984375 166.257812 229.679688 152.1875 229.453125 138.039062 C 229.300781 131.003906 229.226562 123.890625 229.074219 116.855469 C 229 113.296875 227.109375 103.539062 230.363281 101.042969 C 231.574219 103.613281 230.890625 107.699219 230.96875 110.574219 C 231.042969 114.132812 231.117188 117.609375 231.195312 121.167969 C 231.269531 128.203125 231.421875 135.238281 231.574219 142.273438 Z M 264.105469 190.542969 C 264.257812 187.0625 264.027344 184.644531 264.027344 184.644531 L 260.398438 184.644531 C 260.398438 184.644531 260.472656 187.0625 260.246094 190.542969 Z M 255.101562 208.476562 C 252.832031 211.804688 249.652344 214.074219 245.039062 214.074219 L 245.039062 217.328125 C 251.015625 217.328125 255.101562 214.90625 257.902344 211.351562 C 257.070312 210.289062 256.085938 209.308594 255.101562 208.476562 Z M 258.355469 212.863281 L 257.976562 216.644531 C 261.382812 216.117188 264.105469 214.453125 266.296875 212.03125 L 260.246094 212.03125 C 259.113281 212.710938 258.355469 212.863281 258.355469 212.863281 Z M 271.445312 184.644531 C 271.367188 186.761719 271.214844 188.726562 270.988281 190.542969 L 274.394531 190.542969 C 274.847656 187.0625 274.921875 184.644531 274.921875 184.644531 Z M 271.445312 184.644531 " fill-opacity="1" fill-rule="nonzero"/><path fill="#e8e1d1" d="M 75.265625 84.320312 C 65.734375 73.804688 76.324219 68.886719 80.257812 73.425781 C 80.257812 73.351562 80.335938 73.277344 80.335938 73.199219 C 81.847656 72.140625 82.832031 70.476562 83.285156 68.660156 C 83.738281 66.921875 83.664062 65.03125 83.4375 63.214844 C 84.570312 63.214844 85.402344 62.304688 86.3125 61.550781 C 88.582031 59.65625 90.171875 57.085938 90.851562 54.210938 C 94.179688 55.800781 98.265625 54.890625 101.441406 52.925781 C 102.652344 52.167969 103.863281 51.035156 104.167969 49.597656 C 106.359375 52.394531 110.898438 53.226562 114.378906 52.167969 C 114.457031 52.167969 114.53125 52.09375 114.605469 52.09375 C 115.816406 51.636719 116.273438 50.882812 116.273438 50.882812 C 116.273438 50.882812 118.769531 53.074219 122.25 52.925781 L 122.25 84.246094 C 122.25 94.914062 115.136719 103.917969 105.453125 106.792969 L 105.453125 112.390625 C 105.453125 112.390625 107.722656 124.796875 75.339844 111.558594 L 75.339844 85.910156 L 75.417969 85.910156 C 75.265625 85.382812 75.265625 84.851562 75.265625 84.320312 Z M 74.585938 189.710938 C 70.574219 183.28125 66.566406 176.851562 62.554688 170.417969 C 60.738281 167.46875 58.921875 164.59375 57.109375 161.644531 C 56.351562 160.433594 55.367188 159.070312 53.929688 159.148438 C 52.796875 159.148438 55.59375 164.367188 55.898438 164.746094 C 57.257812 166.484375 58.46875 168.300781 59.679688 170.269531 C 62.480469 174.730469 65.203125 179.269531 68.003906 183.734375 C 73.601562 192.8125 79.199219 201.816406 84.722656 210.894531 C 86.160156 213.316406 89.488281 217.855469 89.1875 215.285156 C 84.796875 205.675781 80.183594 198.640625 74.585938 189.710938 Z M 142.601562 188.199219 C 140.859375 188.199219 139.121094 188.273438 137.457031 188.273438 C 134.125 188.351562 130.796875 188.351562 127.46875 188.425781 C 125.652344 188.425781 123.761719 188.5 122.097656 187.894531 C 119.449219 187.0625 117.40625 185.019531 115.894531 182.675781 C 114.378906 180.332031 88.503906 143.636719 85.628906 141.519531 C 84.570312 140.761719 84.421875 144.167969 85.253906 145.226562 C 95.769531 159.523438 118.085938 189.5625 118.84375 190.089844 C 119.601562 190.621094 120.585938 190.695312 121.566406 190.769531 C 127.167969 191.226562 132.765625 190.847656 138.289062 190.46875 C 139.875 190.394531 141.464844 190.242188 143.054688 190.164062 C 143.582031 190.089844 144.1875 190.089844 144.566406 189.710938 C 146.003906 188.273438 143.28125 188.199219 142.601562 188.199219 Z M 119.980469 144.921875 C 119.601562 143.109375 119.148438 137.886719 116.953125 137.433594 C 115.515625 142.425781 117.332031 147.648438 118.3125 152.566406 C 119.523438 158.691406 120.8125 164.746094 122.097656 170.796875 C 122.855469 174.125 124.667969 182.070312 125.5 185.398438 C 125.652344 185.929688 125.804688 186.535156 126.105469 186.988281 C 126.484375 187.441406 127.089844 187.746094 127.621094 187.519531 C 127.46875 184.414062 125.425781 176.773438 124.667969 173.75 C 123.15625 167.46875 122.398438 160.960938 121.492188 154.53125 C 121.1875 151.355469 120.660156 148.101562 119.980469 144.921875 Z M 119.980469 144.921875 " fill-opacity="1" fill-rule="nonzero"/><path fill="#0f1b35" d="M 112.109375 95.445312 C 109.085938 97.257812 105.226562 97.335938 101.746094 96.578125 C 100.382812 96.277344 98.871094 95.746094 98.113281 94.613281 C 97.734375 94.007812 97.960938 93.777344 98.265625 93.175781 C 101.820312 95.820312 106.816406 96.425781 110.898438 94.761719 C 111.355469 94.839844 112.109375 94.988281 112.109375 95.445312 Z M 92.0625 75.925781 C 92.210938 75.925781 92.363281 75.773438 92.515625 75.621094 C 93.195312 74.941406 93.953125 74.335938 94.859375 73.957031 C 94.710938 74.714844 94.558594 75.46875 94.632812 76.226562 C 94.710938 77.058594 95.085938 77.890625 95.84375 78.269531 C 96.375 78.574219 96.980469 78.574219 97.507812 78.496094 C 97.8125 78.421875 98.113281 78.269531 98.339844 78.042969 C 98.566406 77.816406 98.792969 77.4375 98.871094 77.136719 C 99.171875 76.226562 99.324219 75.167969 99.171875 74.261719 C 100.230469 74.863281 101.066406 75.699219 101.59375 76.757812 C 101.667969 76.984375 101.820312 77.210938 101.972656 77.363281 C 102.125 77.511719 102.351562 77.4375 102.578125 77.285156 C 102.125 75.015625 100.15625 73.050781 97.886719 72.59375 C 95.617188 72.140625 93.046875 73.199219 91.757812 75.167969 C 91.683594 75.320312 91.910156 75.925781 92.0625 75.925781 Z M 114 72.59375 C 111.730469 73.050781 109.765625 75.015625 109.3125 77.285156 C 109.539062 77.4375 109.6875 77.511719 109.917969 77.363281 C 110.066406 77.210938 110.21875 76.984375 110.292969 76.757812 C 110.824219 75.699219 111.65625 74.789062 112.714844 74.261719 C 112.640625 75.242188 112.714844 76.300781 113.019531 77.136719 C 113.167969 77.4375 113.320312 77.816406 113.546875 78.042969 C 113.773438 78.269531 114.078125 78.421875 114.378906 78.496094 C 114.910156 78.648438 115.589844 78.574219 116.042969 78.269531 C 116.726562 77.890625 117.179688 77.058594 117.253906 76.226562 C 117.332031 75.46875 117.179688 74.714844 117.027344 73.957031 C 117.9375 74.335938 118.691406 74.941406 119.375 75.621094 C 119.523438 75.773438 119.675781 75.925781 119.828125 75.925781 C 119.980469 75.925781 120.207031 75.320312 120.128906 75.167969 C 118.84375 73.199219 116.347656 72.140625 114 72.59375 Z M 103.257812 87.953125 C 105 87.878906 106.738281 87.878906 108.480469 87.800781 C 108.175781 83.488281 107.875 79.101562 108.402344 74.789062 C 108.480469 73.882812 108.628906 72.898438 109.085938 72.066406 C 109.460938 71.234375 110.21875 70.476562 111.050781 70.25 C 111.355469 70.25 111.429688 69.644531 111.125 69.570312 C 110.824219 69.417969 110.523438 69.570312 110.292969 69.71875 C 109.007812 70.550781 108.101562 71.914062 107.648438 73.351562 C 107.191406 74.789062 107.117188 76.378906 107.042969 77.890625 C 106.890625 80.992188 106.964844 84.09375 107.117188 87.121094 C 106.210938 86.742188 104.847656 86.894531 103.941406 86.96875 C 103.710938 86.96875 103.484375 87.046875 103.257812 87.121094 C 103.105469 87.273438 102.957031 87.347656 103.03125 87.574219 C 102.878906 87.574219 102.878906 87.726562 102.957031 87.800781 C 103.03125 87.953125 103.183594 87.953125 103.257812 87.953125 Z M 92.667969 68.8125 C 93.5 68.738281 94.40625 68.660156 95.238281 68.585938 C 96.449219 68.433594 97.734375 68.359375 98.945312 68.28125 C 99.777344 68.28125 101.441406 68.660156 102.125 68.132812 C 103.183594 67.375 101.367188 67.148438 100.835938 67.074219 C 99.703125 66.996094 98.566406 67.222656 97.433594 67.375 C 95.996094 67.601562 94.558594 67.675781 93.121094 67.601562 C 92.816406 67.601562 92.441406 67.601562 92.136719 67.753906 C 91.835938 67.90625 91.683594 68.359375 91.910156 68.585938 C 92.136719 68.8125 92.441406 68.8125 92.667969 68.8125 Z M 118.84375 67.375 C 118.238281 67.375 117.710938 67.449219 117.105469 67.601562 C 115.589844 67.90625 114.152344 68.207031 112.640625 68.511719 C 112.414062 68.585938 112.1875 68.660156 112.109375 68.886719 C 112.109375 68.964844 112.109375 69.039062 112.1875 69.113281 C 112.414062 69.492188 113.019531 69.417969 113.472656 69.34375 C 115.742188 68.964844 118.164062 68.8125 120.355469 68.132812 C 120.128906 67.601562 119.375 67.449219 118.84375 67.375 Z M 81.242188 78.421875 C 80.714844 77.136719 79.804688 75.847656 78.59375 75.09375 C 78.292969 74.863281 77.082031 74.109375 76.777344 74.335938 C 76.171875 74.714844 77.15625 75.699219 77.460938 75.925781 C 78.066406 76.300781 78.671875 76.453125 79.277344 76.90625 C 80.03125 77.511719 80.335938 78.496094 80.5625 79.40625 C 80.941406 81.371094 80.636719 83.414062 80.789062 85.382812 C 80.789062 85.609375 80.789062 85.910156 80.941406 86.0625 C 81.089844 86.289062 81.316406 86.441406 81.546875 86.363281 C 81.695312 86.289062 81.773438 86.214844 81.847656 86.0625 C 82.074219 85.683594 82.074219 85.230469 82.074219 84.851562 C 82.074219 82.65625 82.074219 80.386719 81.242188 78.421875 Z M 105.378906 106.640625 L 104.847656 106.640625 C 100.988281 106.488281 97.054688 106.261719 93.421875 105.050781 C 89.792969 103.839844 86.234375 101.722656 84.117188 98.546875 C 83.890625 98.242188 83.738281 97.941406 83.359375 97.714844 C 83.058594 97.5625 82.074219 98.167969 81.921875 98.46875 C 82.605469 100.738281 84.421875 102.402344 86.386719 103.691406 C 88.203125 104.902344 90.246094 105.808594 92.363281 106.488281 L 101.519531 117.082031 C 106.058594 115.871094 105.378906 112.238281 105.378906 112.238281 Z M 179.671875 188.425781 C 178.082031 187.972656 179.140625 192.285156 179.21875 192.8125 C 179.292969 193.496094 179.445312 194.101562 179.671875 194.707031 C 179.671875 194.78125 179.746094 194.855469 179.824219 194.933594 C 179.972656 195.082031 180.277344 194.933594 180.351562 194.707031 C 180.503906 194.476562 180.503906 194.101562 180.503906 193.796875 C 180.578125 192.964844 180.578125 188.652344 179.671875 188.425781 Z M 200.324219 205.222656 C 199.796875 204.917969 199.191406 204.617188 198.585938 204.84375 C 198.660156 205.371094 199.265625 205.75 199.796875 205.976562 C 203.199219 207.566406 206.378906 209.535156 209.40625 211.726562 L 211.070312 211.804688 C 210.539062 211.351562 209.859375 210.972656 209.253906 210.59375 C 206.378906 208.777344 203.351562 206.960938 200.324219 205.222656 Z M 221.433594 201.816406 C 221.433594 201.816406 221.359375 201.816406 221.433594 201.816406 C 221.511719 201.894531 221.660156 201.894531 221.738281 201.96875 C 226.351562 203.933594 231.195312 205.523438 236.035156 206.660156 C 236.640625 206.808594 237.171875 206.960938 237.699219 207.265625 C 238.230469 207.566406 238.609375 208.097656 238.609375 208.703125 C 238.609375 209.761719 237.398438 210.289062 236.339844 210.515625 C 234.75 210.894531 233.160156 211.046875 231.574219 211.046875 C 231.34375 211.046875 230.96875 211.046875 230.890625 211.351562 C 230.816406 211.652344 231.269531 211.878906 231.648438 211.878906 C 233.613281 211.953125 235.65625 211.804688 237.625 211.5 C 238.15625 211.425781 238.609375 211.351562 239.0625 211.121094 L 239.515625 210.820312 C 240.195312 210.140625 240.425781 209.003906 240.046875 208.019531 C 239.667969 206.960938 238.757812 206.207031 237.777344 205.75 C 236.792969 205.296875 235.65625 205.070312 234.597656 204.84375 C 231.648438 204.238281 228.773438 203.40625 225.898438 202.421875 C 224.460938 201.96875 223.023438 201.289062 221.511719 200.910156 C 220.753906 200.683594 220.449219 200.757812 220.449219 200.984375 C 219.011719 199.546875 217.425781 198.183594 215.683594 197.203125 C 215.53125 197.125 215.304688 196.976562 215.078125 197.050781 C 214.472656 197.277344 217.273438 199.472656 217.574219 199.773438 C 218.710938 200.757812 219.921875 201.816406 221.054688 202.800781 C 221.359375 203.101562 221.660156 203.332031 221.886719 203.707031 C 222.039062 204.085938 222.117188 204.539062 221.8125 204.84375 C 221.359375 205.296875 220.527344 205.144531 220.074219 205.601562 C 220.074219 205.601562 219.996094 205.675781 219.996094 205.675781 C 219.617188 205.070312 219.089844 204.539062 218.484375 204.164062 C 215.304688 201.589844 211.976562 199.167969 208.496094 197.050781 C 208.195312 196.898438 207.816406 196.75 207.589844 196.898438 C 207.285156 197.203125 207.589844 197.730469 207.890625 198.035156 C 210.160156 200.152344 212.734375 201.894531 215.457031 203.253906 C 216.289062 203.707031 217.121094 204.085938 217.726562 204.769531 C 218.332031 205.449219 218.710938 206.507812 218.257812 207.265625 C 217.726562 208.324219 216.59375 208.324219 215.609375 208.550781 C 215.304688 208.019531 214.851562 207.644531 214.398438 207.265625 C 211.222656 204.464844 207.511719 202.121094 203.351562 201.136719 C 203.429688 202.121094 204.488281 202.726562 205.394531 203.179688 C 208.195312 204.617188 210.84375 206.28125 213.261719 208.324219 C 213.792969 208.777344 214.324219 209.308594 214.398438 209.988281 C 214.550781 211.351562 213.261719 211.652344 212.203125 211.953125 L 214.171875 212.03125 C 214.851562 211.804688 215.53125 211.5 215.835938 210.820312 C 216.0625 210.441406 216.0625 209.988281 215.988281 209.535156 C 216.367188 209.535156 216.742188 209.382812 217.046875 209.308594 C 217.726562 209.082031 218.332031 208.777344 219.011719 208.550781 C 219.316406 208.398438 219.695312 208.246094 219.921875 208.019531 C 220.148438 207.71875 220.222656 207.339844 220.222656 206.960938 C 220.222656 206.660156 220.148438 206.433594 219.996094 206.128906 C 220.148438 206.128906 220.222656 206.207031 220.375 206.128906 C 221.132812 205.976562 222.039062 205.828125 222.417969 205.070312 C 222.71875 204.539062 222.644531 203.859375 222.417969 203.332031 C 222.265625 202.726562 221.8125 202.269531 221.433594 201.816406 Z M 248.59375 212.789062 C 247.007812 211.726562 244.132812 212.183594 242.316406 212.105469 C 236.867188 211.804688 231.34375 211.5 225.972656 212.710938 C 227.714844 213.621094 229.832031 213.695312 231.800781 213.769531 C 236.640625 213.921875 241.484375 213.996094 246.25 213.996094 C 247.382812 213.921875 250.863281 214.300781 248.59375 212.789062 Z M 248.59375 212.789062 " fill-opacity="1" fill-rule="nonzero"/><g clip-path="url(#81198c36d3)"><path fill="#88796f" d="M 305.160156 148.007812 L 296.066406 166.128906 C 295.921875 166.417969 296.039062 166.773438 296.328125 166.917969 C 296.414062 166.960938 296.503906 166.980469 296.59375 166.980469 C 296.808594 166.980469 297.015625 166.863281 297.117188 166.65625 L 306.210938 148.535156 C 306.355469 148.246094 306.238281 147.894531 305.949219 147.746094 C 305.65625 147.601562 305.304688 147.71875 305.160156 148.007812 Z M 305.160156 148.007812 " fill-opacity="1" fill-rule="nonzero"/></g><g clip-path="url(#3805846ee1)"><path fill="#88796f" d="M 295.84375 161.804688 C 296.007812 161.804688 296.171875 161.734375 296.289062 161.597656 C 296.5 161.351562 296.472656 160.980469 296.226562 160.769531 L 292.382812 157.457031 L 296.226562 154.144531 C 296.472656 153.933594 296.5 153.5625 296.289062 153.316406 C 296.078125 153.070312 295.707031 153.042969 295.460938 153.253906 L 291.097656 157.015625 C 290.96875 157.125 290.894531 157.289062 290.894531 157.457031 C 290.894531 157.628906 290.96875 157.792969 291.101562 157.902344 L 295.460938 161.660156 C 295.570312 161.757812 295.707031 161.804688 295.84375 161.804688 Z M 295.84375 161.804688 " fill-opacity="1" fill-rule="nonzero"/></g><g clip-path="url(#6a565c3245)"><path fill="#88796f" d="M 306.664062 161.597656 C 306.78125 161.734375 306.945312 161.804688 307.109375 161.804688 C 307.246094 161.804688 307.382812 161.757812 307.492188 161.660156 L 311.855469 157.902344 C 311.984375 157.792969 312.058594 157.628906 312.058594 157.457031 C 312.058594 157.289062 311.984375 157.125 311.855469 157.015625 L 307.492188 153.253906 C 307.246094 153.042969 306.875 153.070312 306.664062 153.316406 C 306.453125 153.5625 306.480469 153.933594 306.726562 154.144531 L 310.570312 157.457031 L 306.726562 160.769531 C 306.480469 160.980469 306.453125 161.351562 306.664062 161.597656 Z M 306.664062 161.597656 " fill-opacity="1" fill-rule="nonzero"/></g></svg>