<svg xmlns="http://www.w3.org/2000/svg" xmlns:xlink="http://www.w3.org/1999/xlink" width="500" zoomAndPan="magnify" viewBox="0 0 375 225" height="300" preserveAspectRatio="xMidYMid meet" version="1.0"><defs><g/></defs><path stroke-linecap="butt" transform="matrix(0.600186, 0, 0, 0.600186, 45.092713, 80.54206)" fill="none" stroke-linejoin="miter" d="M 91.125831 130.000287 L 61.174176 130.000287 L 61.174176 94.412358 C 61.174176 92.498889 60.692555 91.060532 59.73582 90.097289 C 58.779085 89.121029 57.646624 88.632899 56.338435 88.632899 C 55.056281 88.632899 53.930328 89.088487 52.973593 90.006172 C 52.016858 90.923856 51.535237 92.355704 51.535237 94.295207 L 51.535237 130.000287 L 20.691931 130.000287 L 20.691931 93.039086 C 20.691931 86.426552 21.71375 80.868379 23.750879 76.364566 C 25.814041 71.854245 28.573603 68.222558 32.04258 65.469505 C 35.511557 62.696927 39.345004 60.685832 43.54943 59.442727 C 47.773382 58.193114 52.055909 57.574817 56.397011 57.574817 C 59.911547 57.574817 63.374015 58.173589 66.803942 59.377643 C 70.22736 60.581697 73.364409 62.612318 76.195563 65.469505 C 78.623196 62.775028 81.610551 60.809491 85.164137 59.559878 C 88.711215 58.316774 92.199717 57.652917 95.629644 57.574817 C 100.055356 57.574817 104.396458 58.219148 108.65946 59.501303 C 112.922462 60.789966 116.788451 62.840112 120.257428 65.65174 C 123.726405 68.443844 126.498983 72.095056 128.581671 76.605377 C 130.683884 81.115698 131.731736 86.589262 131.731736 93.039086 L 131.731736 130.000287 L 100.888431 130.000287 L 100.888431 94.295207 C 100.888431 92.355704 100.387284 90.923856 99.391499 90.006172 C 98.389205 89.088487 97.256744 88.632899 95.994114 88.632899 C 94.75101 88.632899 93.625057 89.121029 92.629272 90.097289 C 91.626978 91.060532 91.125831 92.498889 91.125831 94.412358 Z M 170.59339 57.574817 C 175.591841 57.574817 180.264872 58.512026 184.605975 60.386445 C 188.953586 62.267373 192.80005 64.857716 196.145367 68.163983 C 199.490685 71.444216 202.100553 75.277663 203.974972 79.664325 C 205.849391 84.050986 206.793109 88.756559 206.793109 93.774535 L 206.793109 130.000287 L 176.711286 130.000287 L 176.711286 93.774535 C 176.711286 92.101876 176.112513 90.637486 174.908459 89.394382 C 173.704405 88.131753 172.266049 87.500438 170.59339 87.500438 C 168.836122 87.500438 167.352207 88.131753 166.128628 89.394382 C 164.924574 90.637486 164.319293 92.101876 164.319293 93.774535 C 164.319293 95.447194 164.924574 96.911584 166.128628 98.180722 C 167.352207 99.423826 168.836122 100.042124 170.59339 100.042124 L 174.967035 100.042124 L 174.967035 130.000287 L 170.59339 130.000287 C 165.575414 130.000287 160.869841 129.063078 156.489688 127.18215 C 152.103027 125.307731 148.256563 122.697863 144.950296 119.352545 C 141.644029 116.007228 139.053686 112.160764 137.179267 107.813153 C 135.304848 103.47205 134.367638 98.792511 134.367638 93.774535 C 134.367638 88.756559 135.304848 84.050986 137.179267 79.664325 C 139.053686 75.277663 141.644029 71.444216 144.950296 68.163983 C 148.256563 64.857716 152.103027 62.267373 156.489688 60.386445 C 160.869841 58.512026 165.575414 57.574817 170.59339 57.574817 Z M 253.92043 59.683538 L 253.92043 89.153571 L 242.023076 89.153571 C 240.773463 89.153571 240.155165 89.771869 240.155165 91.014974 L 240.155165 130.000287 L 209.31186 130.000287 L 209.31186 92.271095 C 209.31186 85.684594 210.730691 79.963711 213.561844 75.108445 C 216.399507 70.253179 220.343597 66.46529 225.407132 63.757796 C 230.464158 61.043794 236.256634 59.683538 242.784559 59.683538 Z M 283.878594 130.000287 L 256.309013 59.683538 L 289.391208 59.683538 L 304.041616 106.192561 L 305.818409 106.192561 L 302.056554 94.015346 L 313.192425 59.683538 L 346.176995 59.683538 L 318.731074 130.000287 Z M 348.175073 59.683538 L 379.018379 59.683538 L 379.018379 130.000287 L 348.175073 130.000287 Z M 412.328368 130.000287 L 381.517604 130.000287 L 381.517604 93.891686 C 381.517604 87.715215 382.532915 82.32626 384.576552 77.737838 C 386.633207 73.149417 389.399276 69.335495 392.868253 66.296072 C 396.33723 63.237124 400.209728 60.952676 404.492255 59.442727 C 408.800816 57.932778 413.21351 57.177804 417.743357 57.177804 C 422.253677 57.177804 426.679389 57.932778 431.020492 59.442727 C 435.368103 60.952676 439.253617 63.237124 442.677035 66.296072 C 446.106962 69.335495 448.84049 73.149417 450.877619 77.737838 C 452.921256 82.32626 453.943075 87.715215 453.943075 93.891686 L 453.943075 130.000287 L 423.125803 130.000287 L 423.125803 93.891686 C 423.125803 92.056318 422.579097 90.617961 421.47267 89.576617 C 420.392275 88.541782 419.149171 88.02111 417.743357 88.02111 C 416.396118 88.02111 415.153014 88.541782 414.007535 89.576617 C 412.88809 90.617961 412.328368 92.056318 412.328368 93.891686 Z M 412.328368 130.000287 " stroke="#e7e9ff" stroke-width="32.900436" stroke-opacity="1" stroke-miterlimit="4"/><g fill="#040138" fill-opacity="1"><g transform="translate(56.758827, 158.566234)"><g><path d="M 43.03125 0 L 25.046875 0 L 25.046875 -21.359375 C 25.046875 -22.515625 24.753906 -23.378906 24.171875 -23.953125 C 23.597656 -24.535156 22.921875 -24.828125 22.140625 -24.828125 C 21.367188 -24.828125 20.691406 -24.550781 20.109375 -24 C 19.535156 -23.445312 19.25 -22.59375 19.25 -21.4375 L 19.25 0 L 0.75 0 L 0.75 -22.1875 C 0.75 -26.144531 1.363281 -29.476562 2.59375 -32.1875 C 3.820312 -34.894531 5.476562 -37.078125 7.5625 -38.734375 C 9.644531 -40.390625 11.953125 -41.59375 14.484375 -42.34375 C 17.015625 -43.09375 19.582031 -43.46875 22.1875 -43.46875 C 24.289062 -43.46875 26.367188 -43.101562 28.421875 -42.375 C 30.484375 -41.65625 32.367188 -40.441406 34.078125 -38.734375 C 35.523438 -40.335938 37.316406 -41.515625 39.453125 -42.265625 C 41.585938 -43.023438 43.679688 -43.425781 45.734375 -43.46875 C 48.390625 -43.46875 50.992188 -43.078125 53.546875 -42.296875 C 56.109375 -41.523438 58.429688 -40.300781 60.515625 -38.625 C 62.597656 -36.945312 64.265625 -34.753906 65.515625 -32.046875 C 66.765625 -29.335938 67.390625 -26.050781 67.390625 -22.1875 L 67.390625 0 L 48.890625 0 L 48.890625 -21.4375 C 48.890625 -22.59375 48.585938 -23.445312 47.984375 -24 C 47.390625 -24.550781 46.710938 -24.828125 45.953125 -24.828125 C 45.203125 -24.828125 44.523438 -24.535156 43.921875 -23.953125 C 43.328125 -23.378906 43.03125 -22.515625 43.03125 -21.359375 Z M 43.03125 0 "/></g></g></g><g fill="#040138" fill-opacity="1"><g transform="translate(124.983502, 158.566234)"><g><path d="M 22.484375 -43.46875 C 25.492188 -43.46875 28.300781 -42.90625 30.90625 -41.78125 C 33.519531 -40.65625 35.828125 -39.101562 37.828125 -37.125 C 39.835938 -35.144531 41.40625 -32.835938 42.53125 -30.203125 C 43.664062 -27.566406 44.234375 -24.742188 44.234375 -21.734375 L 44.234375 0 L 26.171875 0 L 26.171875 -21.734375 C 26.171875 -22.742188 25.804688 -23.625 25.078125 -24.375 C 24.359375 -25.125 23.492188 -25.5 22.484375 -25.5 C 21.429688 -25.5 20.539062 -25.125 19.8125 -24.375 C 19.09375 -23.625 18.734375 -22.742188 18.734375 -21.734375 C 18.734375 -20.734375 19.09375 -19.859375 19.8125 -19.109375 C 20.539062 -18.359375 21.429688 -17.984375 22.484375 -17.984375 L 25.125 -17.984375 L 25.125 0 L 22.484375 0 C 19.484375 0 16.664062 -0.5625 14.03125 -1.6875 C 11.394531 -2.820312 9.085938 -4.390625 7.109375 -6.390625 C 5.128906 -8.398438 3.570312 -10.707031 2.4375 -13.3125 C 1.3125 -15.914062 0.75 -18.722656 0.75 -21.734375 C 0.75 -24.742188 1.3125 -27.566406 2.4375 -30.203125 C 3.570312 -32.835938 5.128906 -35.144531 7.109375 -37.125 C 9.085938 -39.101562 11.394531 -40.65625 14.03125 -41.78125 C 16.664062 -42.90625 19.484375 -43.46875 22.484375 -43.46875 Z M 22.484375 -43.46875 "/></g></g></g><g fill="#040138" fill-opacity="1"><g transform="translate(169.965157, 158.566234)"><g><path d="M 27.53125 -42.203125 L 27.53125 -24.515625 L 20.390625 -24.515625 C 19.628906 -24.515625 19.25 -24.140625 19.25 -23.390625 L 19.25 0 L 0.75 0 L 0.75 -22.640625 C 0.75 -26.597656 1.597656 -30.03125 3.296875 -32.9375 C 5.003906 -35.851562 7.375 -38.125 10.40625 -39.75 C 13.445312 -41.382812 16.921875 -42.203125 20.828125 -42.203125 Z M 27.53125 -42.203125 "/></g></g></g><g fill="#040138" fill-opacity="1"><g transform="translate(198.24794, 158.566234)"><g><path d="M 17.21875 0 L 0.671875 -42.203125 L 20.53125 -42.203125 L 29.328125 -14.296875 L 30.390625 -14.296875 L 28.125 -21.59375 L 34.828125 -42.203125 L 54.609375 -42.203125 L 38.140625 0 Z M 17.21875 0 "/></g></g></g><g fill="#040138" fill-opacity="1"><g transform="translate(253.309103, 158.566234)"><g><path d="M 0.75 -42.203125 L 19.25 -42.203125 L 19.25 0 L 0.75 0 Z M 0.75 -42.203125 "/></g></g></g><g fill="#040138" fill-opacity="1"><g transform="translate(273.392876, 158.566234)"><g><path d="M 19.1875 0 L 0.671875 0 L 0.671875 -21.65625 C 0.671875 -25.375 1.285156 -28.609375 2.515625 -31.359375 C 3.742188 -34.117188 5.398438 -36.414062 7.484375 -38.25 C 9.566406 -40.082031 11.898438 -41.445312 14.484375 -42.34375 C 17.066406 -43.25 19.710938 -43.703125 22.421875 -43.703125 C 25.128906 -43.703125 27.785156 -43.25 30.390625 -42.34375 C 32.992188 -41.445312 35.320312 -40.082031 37.375 -38.25 C 39.4375 -36.414062 41.082031 -34.117188 42.3125 -31.359375 C 43.539062 -28.609375 44.15625 -25.375 44.15625 -21.65625 L 44.15625 0 L 25.65625 0 L 25.65625 -21.65625 C 25.65625 -22.757812 25.328125 -23.625 24.671875 -24.25 C 24.015625 -24.882812 23.265625 -25.203125 22.421875 -25.203125 C 21.617188 -25.203125 20.878906 -24.882812 20.203125 -24.25 C 19.523438 -23.625 19.1875 -22.757812 19.1875 -21.65625 Z M 19.1875 0 "/></g></g></g><path stroke-linecap="butt" transform="matrix(0.600186, 0, 0, 0.600186, 245.684815, -265.645085)" fill="none" stroke-linejoin="miter" d="M 14.941251 616.81497 C 14.941251 613.202808 16.262457 610.124335 18.898358 607.586059 C 21.53426 604.950157 24.658292 603.63546 28.270454 603.63546 C 31.78499 603.63546 34.863463 604.950157 37.499364 607.586059 C 40.135266 610.124335 41.456471 613.202808 41.456471 616.81497 C 41.456471 620.427131 40.135266 623.557672 37.499364 626.193573 C 34.863463 628.731849 31.78499 630.000987 28.270454 630.000987 C 24.658292 630.000987 21.53426 628.731849 18.898358 626.193573 C 16.262457 623.557672 14.941251 620.427131 14.941251 616.81497 Z M 14.941251 616.81497 " stroke="#e7e9ff" stroke-width="8.25" stroke-opacity="1" stroke-miterlimit="4"/><g fill="#040138" fill-opacity="1"><g transform="translate(245.684815, 112.472064)"><g><path d="M 9 -7.921875 C 9 -10.078125 9.78125 -11.9375 11.34375 -13.5 C 12.90625 -15.0625 14.765625 -15.84375 16.921875 -15.84375 C 19.085938 -15.84375 20.945312 -15.0625 22.5 -13.5 C 24.0625 -11.9375 24.84375 -10.078125 24.84375 -7.921875 C 24.84375 -5.765625 24.0625 -3.90625 22.5 -2.34375 C 20.945312 -0.78125 19.085938 0 16.921875 0 C 14.765625 0 12.90625 -0.78125 11.34375 -2.34375 C 9.78125 -3.90625 9 -5.765625 9 -7.921875 Z M 9 -7.921875 "/></g></g></g><path stroke-linecap="butt" transform="matrix(0.75, 0, 0, 0.75, 59.496281, 58.937988)" fill="none" stroke-linejoin="miter" d="M 42.020586 33.108725 C 42.020586 35.650392 41.624752 37.978517 40.827877 40.093101 C 40.046627 42.197267 38.926836 44.030601 37.484127 45.593101 C 36.041419 47.150393 34.327877 48.353518 32.34871 49.212893 C 30.369544 50.056643 28.208085 50.483726 25.859127 50.483726 C 23.510168 50.483726 21.343502 50.056643 19.364335 49.212893 C 17.390376 48.353518 15.671626 47.150393 14.218501 45.593101 C 12.775793 44.030601 11.66121 42.197267 10.874751 40.093101 C 10.088293 37.978517 9.697668 35.650392 9.697668 33.108725 C 9.697668 30.572267 10.088293 28.24935 10.874751 26.145183 C 11.66121 24.035808 12.775793 22.197266 14.218501 20.645183 C 15.671626 19.082683 17.390376 17.87435 19.364335 17.0306 C 21.343502 16.171225 23.510168 15.744141 25.859127 15.744141 C 28.208085 15.744141 30.369544 16.171225 32.34871 17.0306 C 34.327877 17.87435 36.041419 19.082683 37.484127 20.645183 C 38.926836 22.197266 40.046627 24.035808 40.827877 26.145183 C 41.624752 28.24935 42.020586 30.572267 42.020586 33.108725 Z M 38.932044 33.108725 C 38.932044 30.24935 38.374752 27.733725 37.260169 25.567058 C 36.150794 23.395183 34.619544 21.697266 32.656002 20.478516 C 30.69246 19.254558 28.426835 18.639975 25.859127 18.639975 C 23.312252 18.639975 21.051835 19.254558 19.072668 20.478516 C 17.093501 21.697266 15.551835 23.395183 14.44246 25.567058 C 13.333085 27.733725 12.781001 30.24935 12.781001 33.108725 C 12.781001 35.973309 13.333085 38.494142 14.44246 40.671226 C 15.551835 42.837892 17.093501 44.535809 19.072668 45.759767 C 21.051835 46.978517 23.312252 47.582684 25.859127 47.582684 C 28.426835 47.582684 30.69246 46.978517 32.656002 45.759767 C 34.619544 44.535809 36.150794 42.837892 37.260169 40.671226 C 38.374752 38.494142 38.932044 35.973309 38.932044 33.108725 Z M 51.379961 48.551434 C 51.379961 48.936851 51.234128 49.275393 50.942461 49.561851 C 50.656003 49.853518 50.317461 49.999351 49.932044 49.999351 C 49.515378 49.999351 49.171628 49.853518 48.895586 49.561851 C 48.619544 49.275393 48.484128 48.936851 48.484128 48.551434 L 48.484128 15.744141 C 48.484128 15.358725 48.629961 15.020183 48.916419 14.733724 C 49.208086 14.442058 49.546628 14.296224 49.932044 14.296224 C 50.348711 14.296224 50.692461 14.442058 50.968503 14.733724 C 51.244545 15.020183 51.379961 15.358725 51.379961 15.744141 Z M 68.661212 23.108725 C 68.843504 23.2806 69.015379 23.363933 69.182045 23.363933 C 69.473712 23.363933 69.744545 23.296225 69.994545 23.1556 C 70.254962 23.004558 70.47892 22.822266 70.676837 22.598308 L 74.29142 18.785808 C 74.458087 18.62435 74.577879 18.462891 74.661212 18.291016 C 74.739337 18.108725 74.775795 17.9056 74.775795 17.676433 C 74.807045 17.197266 74.676837 16.827475 74.390379 16.567058 C 74.098712 16.31185 73.713295 16.181641 73.234129 16.181641 C 72.848712 16.181641 72.520587 16.296225 72.244545 16.520183 C 71.968504 16.744141 71.754962 16.983725 71.593504 17.238933 L 68.650795 21.822266 C 68.484129 22.082683 68.406004 22.31185 68.406004 22.504558 C 68.406004 22.723308 68.489337 22.926433 68.661212 23.108725 Z M 80.593504 25.7806 C 80.322671 25.488933 79.973712 25.3431 79.557046 25.3431 C 79.145587 25.3431 78.796629 25.488933 78.520587 25.7806 C 78.249754 26.072267 78.109129 26.426433 78.109129 26.8431 L 78.109129 29.822267 C 77.640379 28.952475 77.025796 28.171225 76.270587 27.478517 C 75.379962 26.634767 74.32267 25.978517 73.114337 25.49935 C 71.906004 25.009767 70.609129 24.770183 69.22892 24.770183 C 67.077879 24.770183 65.150795 25.31185 63.442462 26.4056 C 61.739337 27.494142 60.390378 28.99935 59.390378 30.916017 C 58.395586 32.832684 57.895586 35.041017 57.895586 37.546225 C 57.895586 39.999351 58.38517 42.207684 59.369545 44.171226 C 60.348712 46.124351 61.702878 47.666018 63.421628 48.796226 C 65.140378 49.921226 67.093504 50.483726 69.275795 50.483726 C 70.624754 50.483726 71.88517 50.233726 73.057045 49.738934 C 74.234129 49.238934 75.260171 48.587893 76.129962 47.785809 C 76.963296 47.014976 77.619546 46.192059 78.109129 45.311851 L 78.109129 48.551434 C 78.109129 48.936851 78.249754 49.275393 78.520587 49.561851 C 78.796629 49.853518 79.145587 49.999351 79.557046 49.999351 C 79.942462 49.999351 80.281004 49.853518 80.572671 49.561851 C 80.864337 49.275393 81.010171 48.936851 81.010171 48.551434 L 81.010171 26.8431 C 81.010171 26.426433 80.869546 26.072267 80.593504 25.7806 Z M 74.057045 46.452476 C 72.739337 47.343101 71.22892 47.785809 69.520587 47.785809 C 67.817462 47.785809 66.307045 47.343101 64.989337 46.452476 C 63.66642 45.567059 62.629962 44.343101 61.864337 42.791017 C 61.114337 41.228517 60.734128 39.478517 60.734128 37.546225 C 60.734128 35.587892 61.114337 33.848309 61.864337 32.3431 C 62.629962 30.827475 63.676837 29.634767 65.01017 28.775392 C 66.348712 27.900392 67.848712 27.462892 69.520587 27.462892 C 71.22892 27.462892 72.739337 27.916017 74.057045 28.822267 C 75.379962 29.723308 76.416421 30.931642 77.166421 32.447267 C 77.921629 33.957684 78.296629 35.6556 78.296629 37.546225 C 78.296629 39.478517 77.921629 41.228517 77.166421 42.791017 C 76.416421 44.343101 75.379962 45.567059 74.057045 46.452476 Z M 112.994547 50.483726 C 110.51538 50.483726 108.322672 49.952476 106.42163 48.895184 C 104.531005 47.832684 103.057047 46.353517 101.994547 44.452476 C 100.932047 42.551434 100.406005 40.332684 100.406005 37.796225 C 100.406005 35.06185 100.942463 32.728517 102.020588 30.801433 C 103.093505 28.869142 104.494547 27.379558 106.213297 26.332683 C 107.932047 25.291017 109.760172 24.770183 111.687255 24.770183 C 113.103922 24.770183 114.478922 25.020183 115.812256 25.520183 C 117.145589 26.014975 118.338297 26.754558 119.379964 27.733725 C 120.432047 28.7181 121.270589 29.916017 121.890381 31.327475 C 122.520589 32.744142 122.869547 34.384767 122.937256 36.254559 C 122.900797 36.639975 122.734131 36.9681 122.442464 37.244142 C 122.161214 37.509767 121.827881 37.645184 121.442464 37.645184 L 102.088297 37.645184 L 101.510172 35.041017 L 120.525797 35.041017 L 119.890381 35.619142 L 119.890381 34.650392 C 119.760172 33.145184 119.281006 31.858725 118.437256 30.801433 C 117.609131 29.738933 116.593506 28.931642 115.400797 28.384767 C 114.213297 27.832683 112.978922 27.56185 111.687255 27.56185 C 110.723714 27.56185 109.73413 27.754558 108.718505 28.150392 C 107.708089 28.535808 106.791422 29.139975 105.963297 29.962892 C 105.145588 30.7806 104.478922 31.822267 103.963297 33.098309 C 103.45288 34.358725 103.197672 35.858725 103.197672 37.598309 C 103.197672 39.494142 103.583088 41.218101 104.348713 42.764976 C 105.129963 44.306642 106.249755 45.525392 107.708089 46.431642 C 109.176839 47.332684 110.92163 47.785809 112.947672 47.785809 C 114.072672 47.785809 115.083089 47.624351 115.978922 47.301434 C 116.879964 46.978517 117.671631 46.551434 118.343506 46.020184 C 119.020589 45.483726 119.588297 44.931642 120.041422 44.358726 C 120.395589 44.067059 120.749756 43.921226 121.103922 43.921226 C 121.421631 43.921226 121.702881 44.051434 121.937256 44.311851 C 122.182047 44.561851 122.301839 44.848309 122.301839 45.171226 C 122.301839 45.561851 122.140381 45.900392 121.822672 46.181642 C 120.853922 47.343101 119.598714 48.353518 118.051839 49.212893 C 116.510172 50.056643 114.82788 50.483726 112.994547 50.483726 Z M 147.588299 25.483725 C 148.010174 25.483725 148.353924 25.629558 148.624757 25.921225 C 148.89559 26.212892 149.036215 26.551433 149.036215 26.93685 L 149.036215 40.541017 C 149.036215 43.728517 148.129965 46.160809 146.327882 47.832684 C 144.525798 49.504559 142.098715 50.343101 139.046631 50.343101 C 136.02059 50.343101 133.619548 49.504559 131.838298 47.832684 C 130.051839 46.160809 129.161214 43.728517 129.161214 40.541017 L 129.161214 26.93685 C 129.161214 26.551433 129.296631 26.212892 129.562256 25.921225 C 129.838298 25.629558 130.182048 25.483725 130.598714 25.483725 C 131.025798 25.483725 131.369548 25.629558 131.635173 25.921225 C 131.911215 26.212892 132.046631 26.551433 132.046631 26.93685 L 132.046631 40.541017 C 132.046631 42.858726 132.671631 44.619142 133.911215 45.827476 C 135.150798 47.030601 136.86434 47.634768 139.046631 47.634768 C 141.27059 47.634768 143.004965 47.030601 144.254965 45.827476 C 145.510173 44.619142 146.135173 42.858726 146.135173 40.541017 L 146.135173 26.93685 C 146.135173 26.551433 146.265382 26.212892 146.525798 25.921225 C 146.786215 25.629558 147.140382 25.483725 147.588299 25.483725 Z M 168.484133 46.087892 C 168.223716 45.702476 168.103924 45.327476 168.119549 44.957684 C 168.135174 44.587892 168.333091 44.291017 168.718508 44.061851 C 168.978924 43.843101 169.275799 43.749351 169.614341 43.780601 C 169.952883 43.811851 170.265383 43.973309 170.557049 44.264976 C 171.426841 45.384767 172.478925 46.291017 173.7133 46.983726 C 174.952883 47.676434 176.426841 48.020184 178.129966 48.020184 C 179.036216 48.020184 179.926842 47.869143 180.80705 47.561851 C 181.692467 47.254559 182.421633 46.785809 182.99455 46.160809 C 183.577883 45.530601 183.86955 44.738934 183.86955 43.780601 C 183.86955 42.780601 183.577883 41.978517 182.99455 41.363934 C 182.421633 40.754559 181.676842 40.270184 180.760175 39.916017 C 179.8383 39.561851 178.864341 39.254559 177.8383 38.99935 C 176.74455 38.707684 175.687258 38.379559 174.656008 38.009767 C 173.629966 37.639975 172.718508 37.176434 171.921633 36.619142 C 171.140383 36.051434 170.499758 35.369142 170.015383 34.567059 C 169.536216 33.759767 169.296633 32.775392 169.296633 31.613934 C 169.296633 30.259767 169.666424 29.072267 170.406008 28.041017 C 171.1508 27.014975 172.156008 26.212892 173.421633 25.639975 C 174.692466 25.056642 176.135175 24.770183 177.74455 24.770183 C 178.551841 24.770183 179.421633 24.87435 180.348717 25.087892 C 181.281008 25.291017 182.197675 25.634767 183.103925 26.12435 C 184.004967 26.603517 184.812258 27.254558 185.515383 28.087892 C 185.80705 28.379558 185.952883 28.707683 185.952883 29.077475 C 185.952883 29.447267 185.791425 29.7806 185.468508 30.067058 C 185.2133 30.264975 184.911217 30.363933 184.572675 30.363933 C 184.239342 30.363933 183.952883 30.233725 183.728925 29.973308 C 182.958092 29.108725 182.036217 28.452475 180.968508 28.004558 C 179.911217 27.551433 178.770591 27.322267 177.55705 27.322267 C 176.61955 27.322267 175.739341 27.478517 174.916425 27.785808 C 174.098716 28.087892 173.416425 28.551433 172.864341 29.160808 C 172.322675 29.764975 172.051841 30.567058 172.051841 31.567059 C 172.114341 32.49935 172.447675 33.254559 173.041425 33.837892 C 173.640383 34.421225 174.426841 34.900392 175.411216 35.285809 C 176.390383 35.671225 177.489341 36.025392 178.708091 36.348309 C 179.739342 36.608725 180.728925 36.910809 181.676842 37.264975 C 182.629967 37.619142 183.4633 38.06185 184.187258 38.598309 C 184.911217 39.124351 185.484133 39.791017 185.916425 40.598309 C 186.359133 41.400392 186.577883 42.410809 186.577883 43.629559 C 186.577883 45.046226 186.18205 46.275392 185.390383 47.301434 C 184.603925 48.332684 183.551842 49.119143 182.228925 49.671226 C 180.911217 50.212893 179.447675 50.483726 177.8383 50.483726 C 176.103925 50.483726 174.421633 50.145184 172.796633 49.468101 C 171.176841 48.796226 169.739341 47.666018 168.484133 46.087892 Z M 215.520593 37.645184 C 215.520593 40.093101 214.994551 42.291017 213.932051 44.238934 C 212.869551 46.181642 211.421635 47.707684 209.583093 48.822268 C 207.754968 49.931643 205.666426 50.483726 203.317468 50.483726 C 201.031009 50.483726 198.963301 49.931643 197.109134 48.822268 C 195.265384 47.707684 193.801842 46.181642 192.728925 44.238934 C 191.6508 42.291017 191.114342 40.093101 191.114342 37.645184 C 191.114342 35.171225 191.6508 32.9681 192.728925 31.046225 C 193.801842 29.113933 195.265384 27.587892 197.109134 26.462892 C 198.963301 25.332683 201.031009 24.770183 203.317468 24.770183 C 205.666426 24.770183 207.754968 25.332683 209.583093 26.462892 C 211.421635 27.587892 212.869551 29.113933 213.932051 31.046225 C 214.994551 32.9681 215.520593 35.171225 215.520593 37.645184 Z M 212.635176 37.645184 C 212.635176 35.68685 212.234135 33.942059 211.421635 32.410809 C 210.619551 30.879558 209.520593 29.676433 208.114343 28.796225 C 206.713301 27.910808 205.114343 27.462892 203.317468 27.462892 C 201.583092 27.462892 200.004967 27.910808 198.583092 28.796225 C 197.171634 29.676433 196.051842 30.879558 195.223717 32.410809 C 194.411217 33.942059 193.999759 35.68685 193.999759 37.645184 C 193.999759 39.608726 194.411217 41.348309 195.223717 42.863934 C 196.051842 44.369142 197.171634 45.567059 198.583092 46.452476 C 200.004967 47.343101 201.583092 47.785809 203.317468 47.785809 C 205.114343 47.785809 206.713301 47.343101 208.114343 46.452476 C 209.520593 45.567059 210.619551 44.369142 211.421635 42.863934 C 212.234135 41.348309 212.635176 39.608726 212.635176 37.645184 Z M 240.176844 25.483725 C 240.603927 25.483725 240.947677 25.629558 241.213302 25.921225 C 241.489344 26.212892 241.624761 26.551433 241.624761 26.93685 L 241.624761 40.541017 C 241.624761 43.728517 240.723719 46.160809 238.916427 47.832684 C 237.119552 49.504559 234.692469 50.343101 231.640385 50.343101 C 228.614344 50.343101 226.213302 49.504559 224.426843 47.832684 C 222.645593 46.160809 221.754968 43.728517 221.754968 40.541017 L 221.754968 26.93685 C 221.754968 26.551433 221.890385 26.212892 222.15601 25.921225 C 222.432052 25.629558 222.775802 25.483725 223.192468 25.483725 C 223.614343 25.483725 223.963302 25.629558 224.228927 25.921225 C 224.504968 26.212892 224.640385 26.551433 224.640385 26.93685 L 224.640385 40.541017 C 224.640385 42.858726 225.260177 44.619142 226.49976 45.827476 C 227.744552 47.030601 229.452885 47.634768 231.640385 47.634768 C 233.859135 47.634768 235.593511 47.030601 236.843511 45.827476 C 238.098719 44.619142 238.728927 42.858726 238.728927 40.541017 L 238.728927 26.93685 C 238.728927 26.551433 238.859136 26.212892 239.119552 25.921225 C 239.374761 25.629558 239.728927 25.483725 240.176844 25.483725 Z M 240.176844 25.483725 " stroke="#e7e9ff" stroke-width="12.667437" stroke-opacity="1" stroke-miterlimit="4"/><g fill="#040138" fill-opacity="1"><g transform="translate(65.02753, 96.437987)"><g><path d="M 25.984375 -12.671875 C 25.984375 -10.765625 25.6875 -9.019531 25.09375 -7.4375 C 24.5 -5.851562 23.660156 -4.476562 22.578125 -3.3125 C 21.492188 -2.144531 20.207031 -1.238281 18.71875 -0.59375 C 17.238281 0.0390625 15.617188 0.359375 13.859375 0.359375 C 12.097656 0.359375 10.472656 0.0390625 8.984375 -0.59375 C 7.503906 -1.238281 6.222656 -2.144531 5.140625 -3.3125 C 4.054688 -4.476562 3.21875 -5.851562 2.625 -7.4375 C 2.03125 -9.019531 1.734375 -10.765625 1.734375 -12.671875 C 1.734375 -14.578125 2.03125 -16.316406 2.625 -17.890625 C 3.21875 -19.472656 4.054688 -20.847656 5.140625 -22.015625 C 6.222656 -23.191406 7.503906 -24.097656 8.984375 -24.734375 C 10.472656 -25.367188 12.097656 -25.6875 13.859375 -25.6875 C 15.617188 -25.6875 17.238281 -25.367188 18.71875 -24.734375 C 20.207031 -24.097656 21.492188 -23.191406 22.578125 -22.015625 C 23.660156 -20.847656 24.5 -19.472656 25.09375 -17.890625 C 25.6875 -16.316406 25.984375 -14.578125 25.984375 -12.671875 Z M 23.671875 -12.671875 C 23.671875 -14.816406 23.253906 -16.703125 22.421875 -18.328125 C 21.585938 -19.953125 20.429688 -21.222656 18.953125 -22.140625 C 17.484375 -23.054688 15.785156 -23.515625 13.859375 -23.515625 C 11.953125 -23.515625 10.253906 -23.054688 8.765625 -22.140625 C 7.285156 -21.222656 6.128906 -19.953125 5.296875 -18.328125 C 4.460938 -16.703125 4.046875 -14.816406 4.046875 -12.671875 C 4.046875 -10.515625 4.460938 -8.625 5.296875 -7 C 6.128906 -5.375 7.285156 -4.101562 8.765625 -3.1875 C 10.253906 -2.269531 11.953125 -1.8125 13.859375 -1.8125 C 15.785156 -1.8125 17.484375 -2.269531 18.953125 -3.1875 C 20.429688 -4.101562 21.585938 -5.375 22.421875 -7 C 23.253906 -8.625 23.671875 -10.515625 23.671875 -12.671875 Z M 23.671875 -12.671875 "/></g></g></g><g fill="#040138" fill-opacity="1"><g transform="translate(92.783326, 96.437987)"><g><path d="M 5.25 -1.078125 C 5.25 -0.796875 5.140625 -0.546875 4.921875 -0.328125 C 4.703125 -0.109375 4.445312 0 4.15625 0 C 3.84375 0 3.582031 -0.109375 3.375 -0.328125 C 3.175781 -0.546875 3.078125 -0.796875 3.078125 -1.078125 L 3.078125 -25.6875 C 3.078125 -25.976562 3.1875 -26.234375 3.40625 -26.453125 C 3.625 -26.671875 3.875 -26.78125 4.15625 -26.78125 C 4.46875 -26.78125 4.726562 -26.671875 4.9375 -26.453125 C 5.144531 -26.234375 5.25 -25.976562 5.25 -25.6875 Z M 5.25 -1.078125 "/></g></g></g><g fill="#040138" fill-opacity="1"><g transform="translate(101.142634, 96.437987)"><g><path d="M 18.015625 -18.484375 C 18.328125 -18.484375 18.585938 -18.375 18.796875 -18.15625 C 19.003906 -17.945312 19.109375 -17.6875 19.109375 -17.375 L 19.109375 -1.078125 C 19.109375 -0.796875 19 -0.546875 18.78125 -0.328125 C 18.5625 -0.109375 18.304688 0 18.015625 0 C 17.703125 0 17.441406 -0.109375 17.234375 -0.328125 C 17.035156 -0.546875 16.9375 -0.796875 16.9375 -1.078125 L 16.9375 -5.390625 L 17.546875 -5.6875 C 17.546875 -5.007812 17.359375 -4.316406 16.984375 -3.609375 C 16.609375 -2.910156 16.09375 -2.257812 15.4375 -1.65625 C 14.789062 -1.0625 14.023438 -0.578125 13.140625 -0.203125 C 12.265625 0.171875 11.320312 0.359375 10.3125 0.359375 C 8.675781 0.359375 7.210938 -0.0625 5.921875 -0.90625 C 4.628906 -1.75 3.613281 -2.90625 2.875 -4.375 C 2.132812 -5.851562 1.765625 -7.507812 1.765625 -9.34375 C 1.765625 -11.21875 2.140625 -12.875 2.890625 -14.3125 C 3.640625 -15.75 4.65625 -16.875 5.9375 -17.6875 C 7.21875 -18.507812 8.664062 -18.921875 10.28125 -18.921875 C 11.3125 -18.921875 12.28125 -18.738281 13.1875 -18.375 C 14.09375 -18.019531 14.882812 -17.523438 15.5625 -16.890625 C 16.238281 -16.265625 16.765625 -15.546875 17.140625 -14.734375 C 17.515625 -13.929688 17.703125 -13.097656 17.703125 -12.234375 L 16.9375 -12.78125 L 16.9375 -17.375 C 16.9375 -17.6875 17.035156 -17.945312 17.234375 -18.15625 C 17.441406 -18.375 17.703125 -18.484375 18.015625 -18.484375 Z M 10.5 -1.671875 C 11.769531 -1.671875 12.898438 -2 13.890625 -2.65625 C 14.878906 -3.320312 15.65625 -4.238281 16.21875 -5.40625 C 16.789062 -6.582031 17.078125 -7.894531 17.078125 -9.34375 C 17.078125 -10.757812 16.789062 -12.035156 16.21875 -13.171875 C 15.65625 -14.304688 14.878906 -15.210938 13.890625 -15.890625 C 12.898438 -16.566406 11.769531 -16.90625 10.5 -16.90625 C 9.238281 -16.90625 8.109375 -16.578125 7.109375 -15.921875 C 6.109375 -15.273438 5.320312 -14.382812 4.75 -13.25 C 4.1875 -12.113281 3.90625 -10.8125 3.90625 -9.34375 C 3.90625 -7.894531 4.1875 -6.582031 4.75 -5.40625 C 5.320312 -4.238281 6.101562 -3.320312 7.09375 -2.65625 C 8.082031 -2 9.21875 -1.671875 10.5 -1.671875 Z M 10.234375 -19.984375 C 10.117188 -19.984375 9.992188 -20.046875 9.859375 -20.171875 C 9.722656 -20.304688 9.65625 -20.457031 9.65625 -20.625 C 9.65625 -20.769531 9.71875 -20.941406 9.84375 -21.140625 L 12.046875 -24.578125 C 12.171875 -24.765625 12.332031 -24.941406 12.53125 -25.109375 C 12.738281 -25.285156 12.988281 -25.375 13.28125 -25.375 C 13.644531 -25.375 13.929688 -25.273438 14.140625 -25.078125 C 14.359375 -24.890625 14.457031 -24.613281 14.4375 -24.25 C 14.4375 -24.082031 14.40625 -23.929688 14.34375 -23.796875 C 14.28125 -23.660156 14.191406 -23.535156 14.078125 -23.421875 L 11.359375 -20.5625 C 11.210938 -20.382812 11.039062 -20.242188 10.84375 -20.140625 C 10.65625 -20.035156 10.453125 -19.984375 10.234375 -19.984375 Z M 10.234375 -19.984375 "/></g></g></g><g fill="#040138" fill-opacity="1"><g transform="translate(123.108428, 96.437987)"><g/></g></g><g fill="#040138" fill-opacity="1"><g transform="translate(133.023801, 96.437987)"><g><path d="M 11.21875 0.359375 C 9.363281 0.359375 7.722656 -0.0351562 6.296875 -0.828125 C 4.867188 -1.628906 3.753906 -2.738281 2.953125 -4.15625 C 2.160156 -5.582031 1.765625 -7.25 1.765625 -9.15625 C 1.765625 -11.207031 2.171875 -12.957031 2.984375 -14.40625 C 3.796875 -15.851562 4.84375 -16.96875 6.125 -17.75 C 7.414062 -18.53125 8.785156 -18.921875 10.234375 -18.921875 C 11.296875 -18.921875 12.328125 -18.734375 13.328125 -18.359375 C 14.335938 -17.984375 15.234375 -17.425781 16.015625 -16.6875 C 16.796875 -15.957031 17.421875 -15.0625 17.890625 -14 C 18.359375 -12.9375 18.617188 -11.707031 18.671875 -10.3125 C 18.648438 -10.019531 18.53125 -9.769531 18.3125 -9.5625 C 18.09375 -9.363281 17.835938 -9.265625 17.546875 -9.265625 L 3.046875 -9.265625 L 2.609375 -11.21875 L 16.859375 -11.21875 L 16.390625 -10.78125 L 16.390625 -11.5 C 16.296875 -12.632812 15.929688 -13.597656 15.296875 -14.390625 C 14.671875 -15.191406 13.910156 -15.796875 13.015625 -16.203125 C 12.128906 -16.617188 11.203125 -16.828125 10.234375 -16.828125 C 9.515625 -16.828125 8.773438 -16.679688 8.015625 -16.390625 C 7.253906 -16.097656 6.566406 -15.644531 5.953125 -15.03125 C 5.335938 -14.414062 4.835938 -13.628906 4.453125 -12.671875 C 4.066406 -11.722656 3.875 -10.597656 3.875 -9.296875 C 3.875 -7.878906 4.160156 -6.585938 4.734375 -5.421875 C 5.316406 -4.265625 6.15625 -3.347656 7.25 -2.671875 C 8.351562 -2.003906 9.664062 -1.671875 11.1875 -1.671875 C 12.03125 -1.671875 12.785156 -1.789062 13.453125 -2.03125 C 14.128906 -2.269531 14.722656 -2.585938 15.234375 -2.984375 C 15.742188 -3.378906 16.164062 -3.796875 16.5 -4.234375 C 16.769531 -4.453125 17.035156 -4.5625 17.296875 -4.5625 C 17.535156 -4.5625 17.742188 -4.460938 17.921875 -4.265625 C 18.109375 -4.078125 18.203125 -3.863281 18.203125 -3.625 C 18.203125 -3.332031 18.082031 -3.078125 17.84375 -2.859375 C 17.113281 -1.992188 16.171875 -1.238281 15.015625 -0.59375 C 13.859375 0.0390625 12.59375 0.359375 11.21875 0.359375 Z M 11.21875 0.359375 "/></g></g></g><g fill="#040138" fill-opacity="1"><g transform="translate(153.505914, 96.437987)"><g><path d="M 16.6875 -18.390625 C 17 -18.390625 17.253906 -18.28125 17.453125 -18.0625 C 17.660156 -17.84375 17.765625 -17.585938 17.765625 -17.296875 L 17.765625 -7.09375 C 17.765625 -4.707031 17.085938 -2.882812 15.734375 -1.625 C 14.390625 -0.375 12.570312 0.25 10.28125 0.25 C 8.007812 0.25 6.203125 -0.375 4.859375 -1.625 C 3.523438 -2.882812 2.859375 -4.707031 2.859375 -7.09375 L 2.859375 -17.296875 C 2.859375 -17.585938 2.957031 -17.84375 3.15625 -18.0625 C 3.363281 -18.28125 3.625 -18.390625 3.9375 -18.390625 C 4.257812 -18.390625 4.519531 -18.28125 4.71875 -18.0625 C 4.925781 -17.84375 5.03125 -17.585938 5.03125 -17.296875 L 5.03125 -7.09375 C 5.03125 -5.351562 5.492188 -4.03125 6.421875 -3.125 C 7.347656 -2.21875 8.632812 -1.765625 10.28125 -1.765625 C 11.945312 -1.765625 13.25 -2.21875 14.1875 -3.125 C 15.125 -4.03125 15.59375 -5.351562 15.59375 -7.09375 L 15.59375 -17.296875 C 15.59375 -17.585938 15.6875 -17.84375 15.875 -18.0625 C 16.070312 -18.28125 16.34375 -18.390625 16.6875 -18.390625 Z M 16.6875 -18.390625 "/></g></g></g><g fill="#040138" fill-opacity="1"><g transform="translate(174.132773, 96.437987)"><g/></g></g><g fill="#040138" fill-opacity="1"><g transform="translate(184.048152, 96.437987)"><g><path d="M 1.8125 -2.9375 C 1.613281 -3.21875 1.519531 -3.5 1.53125 -3.78125 C 1.550781 -4.0625 1.703125 -4.285156 1.984375 -4.453125 C 2.179688 -4.617188 2.40625 -4.6875 2.65625 -4.65625 C 2.914062 -4.632812 3.148438 -4.519531 3.359375 -4.3125 C 4.015625 -3.46875 4.804688 -2.785156 5.734375 -2.265625 C 6.660156 -1.742188 7.765625 -1.484375 9.046875 -1.484375 C 9.722656 -1.484375 10.390625 -1.597656 11.046875 -1.828125 C 11.710938 -2.054688 12.265625 -2.40625 12.703125 -2.875 C 13.140625 -3.34375 13.359375 -3.941406 13.359375 -4.671875 C 13.359375 -5.421875 13.140625 -6.023438 12.703125 -6.484375 C 12.265625 -6.941406 11.703125 -7.300781 11.015625 -7.5625 C 10.328125 -7.832031 9.597656 -8.0625 8.828125 -8.25 C 8.003906 -8.46875 7.207031 -8.710938 6.4375 -8.984375 C 5.664062 -9.265625 4.984375 -9.613281 4.390625 -10.03125 C 3.804688 -10.457031 3.332031 -10.972656 2.96875 -11.578125 C 2.601562 -12.179688 2.421875 -12.914062 2.421875 -13.78125 C 2.421875 -14.800781 2.695312 -15.695312 3.25 -16.46875 C 3.8125 -17.238281 4.566406 -17.835938 5.515625 -18.265625 C 6.472656 -18.703125 7.550781 -18.921875 8.75 -18.921875 C 9.351562 -18.921875 10.003906 -18.84375 10.703125 -18.6875 C 11.410156 -18.53125 12.097656 -18.269531 12.765625 -17.90625 C 13.441406 -17.550781 14.046875 -17.054688 14.578125 -16.421875 C 14.796875 -16.210938 14.90625 -15.96875 14.90625 -15.6875 C 14.90625 -15.40625 14.785156 -15.160156 14.546875 -14.953125 C 14.359375 -14.804688 14.132812 -14.734375 13.875 -14.734375 C 13.625 -14.734375 13.414062 -14.828125 13.25 -15.015625 C 12.664062 -15.671875 11.972656 -16.164062 11.171875 -16.5 C 10.378906 -16.84375 9.523438 -17.015625 8.609375 -17.015625 C 7.910156 -17.015625 7.253906 -16.898438 6.640625 -16.671875 C 6.023438 -16.441406 5.507812 -16.097656 5.09375 -15.640625 C 4.6875 -15.179688 4.484375 -14.578125 4.484375 -13.828125 C 4.535156 -13.128906 4.785156 -12.5625 5.234375 -12.125 C 5.679688 -11.6875 6.269531 -11.320312 7 -11.03125 C 7.738281 -10.75 8.566406 -10.484375 9.484375 -10.234375 C 10.253906 -10.046875 10.992188 -9.816406 11.703125 -9.546875 C 12.421875 -9.285156 13.050781 -8.957031 13.59375 -8.5625 C 14.132812 -8.164062 14.566406 -7.664062 14.890625 -7.0625 C 15.210938 -6.457031 15.375 -5.695312 15.375 -4.78125 C 15.375 -3.71875 15.078125 -2.800781 14.484375 -2.03125 C 13.898438 -1.257812 13.113281 -0.664062 12.125 -0.25 C 11.132812 0.15625 10.035156 0.359375 8.828125 0.359375 C 7.523438 0.359375 6.265625 0.109375 5.046875 -0.390625 C 3.828125 -0.898438 2.75 -1.75 1.8125 -2.9375 Z M 1.8125 -2.9375 "/></g></g></g><g fill="#040138" fill-opacity="1"><g transform="translate(201.056268, 96.437987)"><g><path d="M 20.078125 -9.265625 C 20.078125 -7.429688 19.679688 -5.785156 18.890625 -4.328125 C 18.097656 -2.867188 17.007812 -1.722656 15.625 -0.890625 C 14.25 -0.0546875 12.679688 0.359375 10.921875 0.359375 C 9.210938 0.359375 7.664062 -0.0546875 6.28125 -0.890625 C 4.894531 -1.722656 3.796875 -2.867188 2.984375 -4.328125 C 2.171875 -5.785156 1.765625 -7.429688 1.765625 -9.265625 C 1.765625 -11.117188 2.171875 -12.769531 2.984375 -14.21875 C 3.796875 -15.664062 4.894531 -16.8125 6.28125 -17.65625 C 7.664062 -18.5 9.210938 -18.921875 10.921875 -18.921875 C 12.679688 -18.921875 14.25 -18.5 15.625 -17.65625 C 17.007812 -16.8125 18.097656 -15.664062 18.890625 -14.21875 C 19.679688 -12.769531 20.078125 -11.117188 20.078125 -9.265625 Z M 17.90625 -9.265625 C 17.90625 -10.734375 17.601562 -12.039062 17 -13.1875 C 16.40625 -14.332031 15.582031 -15.238281 14.53125 -15.90625 C 13.476562 -16.570312 12.273438 -16.90625 10.921875 -16.90625 C 9.617188 -16.90625 8.4375 -16.570312 7.375 -15.90625 C 6.320312 -15.238281 5.484375 -14.332031 4.859375 -13.1875 C 4.242188 -12.039062 3.9375 -10.734375 3.9375 -9.265625 C 3.9375 -7.796875 4.242188 -6.492188 4.859375 -5.359375 C 5.484375 -4.222656 6.320312 -3.320312 7.375 -2.65625 C 8.4375 -2 9.617188 -1.671875 10.921875 -1.671875 C 12.273438 -1.671875 13.476562 -2 14.53125 -2.65625 C 15.582031 -3.320312 16.40625 -4.222656 17 -5.359375 C 17.601562 -6.492188 17.90625 -7.796875 17.90625 -9.265625 Z M 17.90625 -9.265625 "/></g></g></g><g fill="#040138" fill-opacity="1"><g transform="translate(222.949696, 96.437987)"><g><path d="M 16.6875 -18.390625 C 17 -18.390625 17.253906 -18.28125 17.453125 -18.0625 C 17.660156 -17.84375 17.765625 -17.585938 17.765625 -17.296875 L 17.765625 -7.09375 C 17.765625 -4.707031 17.085938 -2.882812 15.734375 -1.625 C 14.390625 -0.375 12.570312 0.25 10.28125 0.25 C 8.007812 0.25 6.203125 -0.375 4.859375 -1.625 C 3.523438 -2.882812 2.859375 -4.707031 2.859375 -7.09375 L 2.859375 -17.296875 C 2.859375 -17.585938 2.957031 -17.84375 3.15625 -18.0625 C 3.363281 -18.28125 3.625 -18.390625 3.9375 -18.390625 C 4.257812 -18.390625 4.519531 -18.28125 4.71875 -18.0625 C 4.925781 -17.84375 5.03125 -17.585938 5.03125 -17.296875 L 5.03125 -7.09375 C 5.03125 -5.351562 5.492188 -4.03125 6.421875 -3.125 C 7.347656 -2.21875 8.632812 -1.765625 10.28125 -1.765625 C 11.945312 -1.765625 13.25 -2.21875 14.1875 -3.125 C 15.125 -4.03125 15.59375 -5.351562 15.59375 -7.09375 L 15.59375 -17.296875 C 15.59375 -17.585938 15.6875 -17.84375 15.875 -18.0625 C 16.070312 -18.28125 16.34375 -18.390625 16.6875 -18.390625 Z M 16.6875 -18.390625 "/></g></g></g></svg>