<svg xmlns="http://www.w3.org/2000/svg" xmlns:xlink="http://www.w3.org/1999/xlink" width="250" zoomAndPan="magnify" viewBox="0 0 187.5 374.999991" height="500" preserveAspectRatio="xMidYMid meet" version="1.0"><defs><clipPath id="528f770353"><path d="M 109.898438 0.5 L 187 0.5 L 187 374.5 L 109.898438 374.5 Z M 109.898438 0.5 " clip-rule="nonzero"/></clipPath><clipPath id="1491a1ca04"><path d="M 46 0.5 L 121 0.5 L 121 322 L 46 322 Z M 46 0.5 " clip-rule="nonzero"/></clipPath><clipPath id="1465e2284c"><path d="M 32 0.5 L 121 0.5 L 121 374.5 L 32 374.5 Z M 32 0.5 " clip-rule="nonzero"/></clipPath><clipPath id="ac56df0513"><path d="M 47 0.5 L 121 0.5 L 121 322 L 47 322 Z M 47 0.5 " clip-rule="nonzero"/></clipPath></defs><g clip-path="url(#528f770353)"><path fill="#0e0d2d" d="M 109.898438 0.5 L 187 0.5 L 187 374.574219 L 109.898438 374.574219 Z M 109.898438 0.5 " fill-opacity="1" fill-rule="nonzero"/></g><g clip-path="url(#1491a1ca04)"><path fill="#1c3883" d="M 46.203125 0.5 L 120.585938 0.5 L 120.585938 321.101562 C 18.734375 239.945312 50.9375 173.183594 69.851562 93.621094 C 80.484375 48.875 64.699219 19.105469 46.203125 0.5 Z M 46.203125 0.5 " fill-opacity="1" fill-rule="evenodd"/></g><g clip-path="url(#1465e2284c)"><path fill="#1c2e65" d="M 120.585938 0.5 L 120.585938 374.5 L 38.453125 374.5 C 28.046875 342 24.109375 281.570312 81.214844 195.070312 C 151.4375 88.703125 110.574219 30.804688 47.027344 0.5 Z M 120.585938 0.5 " fill-opacity="1" fill-rule="evenodd"/></g><g clip-path="url(#ac56df0513)"><path fill="#0e0d2d" d="M 120.585938 0.5 L 120.585938 321.101562 C 84.398438 292.269531 65.144531 265.253906 56.195312 238.832031 C 62.804688 225.078125 71.035156 210.492188 81.214844 195.070312 C 151.4375 88.703125 110.574219 30.804688 47.027344 0.5 Z M 120.585938 0.5 " fill-opacity="1" fill-rule="evenodd"/></g></svg>