<?xml version="1.0" standalone="no"?>
<svg xmlns:xlink="http://www.w3.org/1999/xlink" id="wave" style="transform:rotate(0deg); transition: 0.3s" viewBox="0 0 1440 100" version="1.1" xmlns="http://www.w3.org/2000/svg"><defs><linearGradient id="sw-gradient-0" x1="0" x2="0" y1="1" y2="0"><stop stop-color="rgba(232, 250, 255, 1)" offset="0%"/><stop stop-color="rgba(232, 250, 255, 1)" offset="100%"/></linearGradient></defs><path style="transform:translate(0, 0px); opacity:1" fill="url(#sw-gradient-0)" d="M0,50L12,41.7C24,33,48,17,72,21.7C96,27,120,53,144,56.7C168,60,192,40,216,33.3C240,27,264,33,288,38.3C312,43,336,47,360,50C384,53,408,57,432,58.3C456,60,480,60,504,61.7C528,63,552,67,576,66.7C600,67,624,63,648,56.7C672,50,696,40,720,43.3C744,47,768,63,792,71.7C816,80,840,80,864,71.7C888,63,912,47,936,41.7C960,37,984,43,1008,50C1032,57,1056,63,1080,60C1104,57,1128,43,1152,35C1176,27,1200,23,1224,25C1248,27,1272,33,1296,36.7C1320,40,1344,40,1368,48.3C1392,57,1416,73,1440,71.7C1464,70,1488,50,1512,50C1536,50,1560,70,1584,80C1608,90,1632,90,1656,90C1680,90,1704,90,1716,90L1728,90L1728,100L1716,100C1704,100,1680,100,1656,100C1632,100,1608,100,1584,100C1560,100,1536,100,1512,100C1488,100,1464,100,1440,100C1416,100,1392,100,1368,100C1344,100,1320,100,1296,100C1272,100,1248,100,1224,100C1200,100,1176,100,1152,100C1128,100,1104,100,1080,100C1056,100,1032,100,1008,100C984,100,960,100,936,100C912,100,888,100,864,100C840,100,816,100,792,100C768,100,744,100,720,100C696,100,672,100,648,100C624,100,600,100,576,100C552,100,528,100,504,100C480,100,456,100,432,100C408,100,384,100,360,100C336,100,312,100,288,100C264,100,240,100,216,100C192,100,168,100,144,100C120,100,96,100,72,100C48,100,24,100,12,100L0,100Z"/></svg>